<svg width="72" height="73" viewBox="0 0 72 73" fill="none" xmlns="http://www.w3.org/2000/svg">
<path fill-rule="evenodd" clip-rule="evenodd" d="M56.5721 44.6777C56.1525 44.2532 54.9935 44.5903 54.8497 44.8195C54.3845 43.2541 53.4568 41.9106 52.3224 41.0505C52.3224 41.0505 52.3179 40.7558 52.459 40.6131C52.7239 40.4695 53.4877 40.5661 54.0977 40.2825C54.5629 40.0652 54.6567 41.51 55.9185 41.3212C56.8143 41.1868 56.8079 40.2337 56.2926 40.3286C56.1333 40.2779 55.923 40.6674 55.7337 40.707C55.0764 40.8498 54.9853 39.8562 54.9853 39.4317C54.9853 39.242 55.3577 38.0504 55.0764 37.2548C54.7268 36.252 53.6097 35.6995 53.1145 35.3652C52.9752 35.2731 52.7285 34.6856 53.0234 34.4655C53.7235 33.9462 52.3689 33.4728 52.1358 34.6543C52.0074 35.3062 52.2687 35.4831 52.2268 35.8385C52.1795 36.2639 50.9095 37.1277 51.9464 37.9196C52.5082 38.3451 52.6802 37.6434 52.4144 37.3036C51.9009 36.6415 54.2352 35.646 54.3308 38.1544C54.3672 39.1959 52.6711 39.6665 52.2969 39.812C49.4456 39.812 47.1332 37.0494 47.1332 33.6423C47.1332 31.0068 48.5516 28.7342 50.4962 27.8492C51.2919 26.9523 54.5638 27.095 54.4245 25.676C54.3271 24.7082 53.3949 24.2091 52.8769 24.7303C52.6438 25.2027 53.4377 25.2515 53.3912 25.723C53.3484 26.1604 52.5719 26.2755 52.0366 25.9118C51.7635 25.7276 51.6624 25.4421 51.6151 24.966C51.4275 23.0755 55.1656 21.7053 55.1656 21.7053C55.1656 21.7053 52.0794 20.7596 51.9856 19.8636C51.9082 19.1104 52.2669 19.0128 52.5955 19.4373C52.7895 19.6905 53.3439 19.1536 52.6866 18.5404C52.1731 18.2079 51.423 18.5026 51.1926 19.2964C50.9623 20.0901 48.0654 16.5486 47.6922 15.5098C47.5101 15.0061 47.6986 13.8891 48.2985 14.0908C48.7209 14.2345 48.6281 14.5162 48.486 14.705C48.3185 14.9343 48.4669 15.334 48.7683 15.3671C49.0696 15.4003 49.5385 15.0614 49.563 14.4702C49.6086 13.3348 47.46 12.483 46.8983 14.2345C46.7809 14.5973 46.4759 14.0908 46.2437 13.902C45.7266 13.4821 42.5048 9.60075 38.205 9.55195C36.5663 9.53445 37.3155 9.95068 36.5208 9.8853C35.9618 9.83649 35.584 9.03351 35.3518 8.74805C35.2134 8.98286 34.7455 9.83465 34.1838 9.88345C33.3908 9.94883 34.1446 9.53353 32.5023 9.55011C28.2007 9.59983 24.9815 13.4803 24.4635 13.9002C24.2287 14.0844 23.9246 14.5954 23.809 14.2326C23.2472 12.483 21.0987 13.333 21.1442 14.4684C21.1679 15.0595 21.6359 15.4003 21.9381 15.3653C22.2404 15.3303 22.3878 14.9325 22.2194 14.7032C22.0774 14.519 21.9864 14.2326 22.406 14.089C23.0087 13.8873 23.1963 15.0043 23.0133 15.508C22.6391 16.5467 19.7413 20.0938 19.5092 19.2899C19.277 18.486 18.5278 18.2033 18.0134 18.5357C17.3588 19.149 17.9133 19.6859 18.1044 19.4327C18.4313 19.0081 18.79 19.1058 18.7144 19.859C18.6179 20.7578 15.5344 21.7007 15.5344 21.7007C15.5344 21.7007 17.0502 22.2901 18.1044 23.2127C18.6753 23.7118 19.1514 24.2993 19.0868 24.9624C19.0403 25.4394 18.9384 25.7239 18.6662 25.9081C18.129 26.2764 17.3543 26.1567 17.3115 25.7193C17.2632 25.2487 18.0571 25.1999 17.825 24.7266C17.3115 24.2054 16.3783 24.7054 16.2773 25.6733C16.1389 27.0923 19.4099 26.9486 20.2038 27.8465C22.1511 28.7305 23.5723 31.0031 23.5723 33.6386C23.5723 37.0457 21.2599 39.8083 18.4085 39.8083C18.0343 39.6655 16.3346 39.1941 16.3747 38.1508C16.4657 35.6442 18.8045 36.6369 18.2865 37.299C18.0207 37.6434 18.1955 38.3405 18.7545 37.9159C19.7914 37.1277 18.5214 36.2584 18.4741 35.8348C18.434 35.4757 18.6953 35.3016 18.5651 34.6506C18.333 33.4692 16.9746 33.9416 17.6757 34.4664C17.9706 34.6865 17.7239 35.2713 17.5846 35.3661C17.0875 35.7004 15.9705 36.2529 15.6209 37.2548C15.3423 38.0541 15.7119 39.2429 15.7119 39.4317C15.7119 39.8562 15.6209 40.8507 14.9645 40.708C14.7742 40.6684 14.563 40.2779 14.4028 40.3286C13.8893 40.2365 13.8811 41.1877 14.777 41.3212C16.0388 41.5054 16.3246 40.0459 16.6478 40.1886C17.5327 40.5707 17.9697 40.4695 18.2346 40.6131C18.3767 40.7558 18.3748 41.0505 18.3748 41.0505C17.2368 41.9106 16.3119 43.2532 15.8467 44.8195C15.7037 44.5912 14.5439 44.2532 14.1242 44.6787C13.6089 45.152 13.7701 45.7432 13.7965 45.9568C13.8429 46.3334 14.645 46.4273 14.5439 45.6713C14.4529 44.9623 15.386 45.2008 15.5253 45.9089C15.7074 46.9955 15.4224 47.4311 15.4771 47.8003C15.9468 50.8262 18.0871 52.7158 20.5971 52.7158C20.9989 52.7193 21.3997 52.6757 21.7915 52.586C22.2367 52.4792 22.4898 53.2831 22.864 53.9452C22.864 53.9452 21.3218 54.5584 21.5093 55.7408C21.6969 56.9232 22.7711 57.5383 23.5641 56.4977C23.8909 56.0732 23.331 56.0244 22.7247 56.0244C22.264 55.6948 22.3095 55.1248 23.4248 54.8909C24.7803 54.6073 25.9939 57.5383 26.4637 58.7676C26.9334 59.997 29.4998 63.4004 33.0066 62.5956C33.2388 62.5431 35.3418 65.7643 35.3418 65.7643C35.3418 65.7643 37.4475 62.5413 37.6806 62.5956C41.1865 63.4004 43.7575 59.9951 44.2236 58.7676C44.6897 57.5402 45.9069 54.6073 47.2616 54.8909C48.3777 55.1248 48.4232 55.6948 47.9626 56.0244C47.3562 56.0244 46.7964 56.0732 47.1223 56.4977C47.9143 57.5383 48.9913 56.925 49.1779 55.7408C49.3646 54.5566 47.8233 53.9452 47.8233 53.9452C48.1974 53.2831 48.4487 52.4792 48.8957 52.586C49.2873 52.6757 49.6878 52.7193 50.0892 52.7158C52.6001 52.7158 54.9753 50.8262 55.1137 47.6576C55.1319 47.2893 55.0227 46.5443 55.1619 45.908C55.3012 45.1999 56.2371 44.9614 56.1433 45.6704C56.0432 46.4273 56.8434 46.3325 56.8917 45.9559C56.9144 45.7422 57.0738 45.1501 56.5621 44.6768L56.5721 44.6777ZM34.7928 13.3827C35.2125 12.7657 35.3509 12.0115 35.4447 12.3872C35.6058 13.0318 36.1475 13.3339 35.9126 13.5236C35.5539 13.8136 34.6381 13.6092 34.7928 13.3827ZM35.3509 64.2034L34.1383 62.4068L35.3509 60.706L36.5672 62.4068L35.3509 64.2034ZM54.3745 47.5158C54.3745 49.9717 52.439 51.9607 50.0537 51.9607C49.0347 51.9616 48.0491 51.5935 47.2752 50.9229C46.6823 50.2707 46.3478 49.4203 46.3357 48.5342C46.3357 46.8224 47.6021 45.4365 49.0459 45.4365C49.2335 45.57 49.4684 45.3444 49.7943 46.3795C50.2158 46.5701 50.2613 46.2211 50.2613 45.815C50.2613 45.152 49.5612 44.8683 48.72 44.5387C48.1028 44.2947 48.629 42.9567 47.6913 42.8812C47.084 42.8342 46.8492 43.1187 46.9912 43.5423C47.0822 43.9107 47.4163 43.5709 47.5975 43.686C48.2066 44.0644 47.3535 45.1372 47.3535 45.1372C46.3858 46.0065 45.7749 47.2322 45.7749 48.5075C45.7749 49.3197 46.0243 50.0334 46.3839 50.7305C46.7991 51.2563 47.1796 51.7434 47.6266 52.0372C47.6266 52.0372 48.0627 53.0952 46.9457 54.0391C46.3839 54.5124 45.8231 53.8963 43.9523 57.205C43.8567 57.379 43.5362 56.6967 42.8325 56.4499C42.3627 56.1653 40.9607 56.4499 40.8688 57.6801C40.7778 58.8128 41.8975 58.2483 42.177 57.3017C42.5357 57.0641 42.8653 57.495 43.1111 57.9619C43.4498 58.6065 42.7369 60.1379 40.8224 61.369C39.0926 62.4556 36.0073 61.9363 36.1002 59.8552C36.1703 58.3173 38.2523 57.9628 37.9692 59.1922C37.8008 59.9362 39.7463 60.0439 38.8122 58.4352C37.8782 56.8265 35.7269 58.251 35.3527 59.1922C34.9795 58.2492 32.83 56.8274 31.8932 58.4352C30.9564 60.043 32.9047 59.9362 32.7354 59.1922C32.454 57.9628 34.5352 58.3173 34.6035 59.8552C34.6945 61.9363 31.6128 62.4556 29.8831 61.369C27.9713 60.1388 27.2539 58.6065 27.5935 57.9619C27.8411 57.4959 28.1679 57.0641 28.5284 57.3017C28.8088 58.2483 29.925 58.8137 29.8358 57.6801C29.7447 56.4499 28.3418 56.1662 27.8739 56.4499C27.1692 56.6967 26.8488 57.379 26.7513 57.205C24.8823 53.8954 24.3215 54.5124 23.7598 54.0391C22.6427 53.0952 23.0797 52.0372 23.0797 52.0372C23.4803 51.5767 23.951 51.3502 24.3679 50.8244C24.7358 50.1086 24.9293 49.3143 24.9324 48.5075C24.9324 47.2312 24.3215 46.0065 23.3565 45.1372C23.3565 45.1372 22.5035 44.0644 23.1107 43.686C23.2928 43.5709 23.6232 43.9125 23.7197 43.5423C23.8581 43.1187 23.8044 42.9953 23.0169 42.93C21.8971 42.8379 22.6091 44.2928 21.99 44.5378C21.1488 44.8665 20.4423 45.1511 20.4423 45.8131C20.4423 46.2202 20.4906 46.5682 20.9103 46.3785C21.2389 45.3407 21.472 45.5691 21.6586 45.4347C23.1043 45.4347 24.3689 46.8215 24.3689 48.5324C24.3578 49.4188 24.0239 50.27 23.4311 50.9229C22.657 51.5921 21.6719 51.9592 20.6535 51.958C18.2674 51.958 16.3319 49.9689 16.3319 47.5139C16.0488 43.7808 18.2929 41.51 20.3376 40.3663C22.6364 39.37 24.276 36.775 24.276 33.7362C24.276 30.4957 22.5927 27.9947 19.8797 26.8593C19.1514 26.3666 19.5156 26.2561 19.7413 25.7239C19.8196 25.5397 19.8105 25.2708 19.8324 24.967C19.9025 24.0848 19.8151 24.5065 19.7413 24.0691C19.714 23.9246 19.5083 23.7662 19.5538 23.3131C19.7413 21.5175 21.614 22.2873 21.7506 22.9825C21.8917 23.6916 21.6422 23.6207 21.4702 23.7864C20.6763 23.5019 20.954 24.0166 21.0022 24.164C21.1433 24.5885 21.6113 24.7386 22.1721 24.3537C22.6382 24.2109 22.8294 23.5102 22.9668 23.5498C23.8627 23.8104 24.276 22.7938 23.9018 22.745C23.5276 22.6961 23.0597 23.1722 22.7338 22.745C21.6085 21.2863 19.7468 21.3637 19.4145 21.988C18.8054 23.1234 18.292 22.5092 18.292 22.5092C18.292 22.5092 17.4526 21.8978 17.5436 21.848C18.993 21.0441 19.6494 20.5846 21.8917 18.3488C22.8731 17.2125 25.2346 14.0319 25.8637 13.5263C27.9221 11.8688 31.7995 8.98747 34.0445 10.785C34.9385 11.5023 34.6035 12.2961 34.2766 12.5815C33.9034 12.9582 33.6457 11.6607 33.4828 11.7288C32.9675 11.8209 33.7632 12.6745 33.3917 13.053C33.0431 13.4324 32.4149 12.9729 32.4559 12.5815C32.5469 11.6819 30.494 13.3854 32.9693 14.0936C33.4983 14.2428 33.4846 13.9094 33.8588 13.9508C34.2329 13.9923 34.6982 14.472 35.3527 14.3772C36.0073 14.4693 36.4752 13.9987 36.8503 13.9508C37.2254 13.903 37.2145 14.2428 37.737 14.0936C40.2151 13.3854 38.1567 11.6819 38.2532 12.5815C38.2942 12.9729 37.6651 13.4324 37.3174 13.053C36.9441 12.6745 37.737 11.8246 37.2263 11.7288C37.0606 11.657 36.8057 12.9582 36.4325 12.5815C36.1029 12.2961 35.7706 11.5023 36.6646 10.785C38.9069 8.98655 42.787 11.8716 44.8445 13.5263C45.4736 14.031 47.8351 17.2097 48.8174 18.3488C51.057 20.5837 51.4812 20.9005 53.1655 21.848C53.2565 21.8987 52.3689 22.5562 52.3689 22.5562C52.3689 22.5562 51.9492 22.8877 51.2946 21.988C50.8786 21.4189 49.0969 21.2863 47.9753 22.745C47.6485 23.1722 47.1814 22.6989 46.8073 22.745C46.4331 22.791 46.8464 23.8104 47.7422 23.5498C47.8797 23.5102 48.0682 24.2109 48.5361 24.3537C49.0969 24.7386 49.5649 24.5885 49.7069 24.164C49.7551 24.0166 50.0328 23.5019 49.2371 23.7864C49.0669 23.6207 48.8174 23.6943 48.9585 22.9825C49.0951 22.2873 50.9678 21.5175 51.1553 23.3131C51.2008 23.7662 50.9924 23.9246 50.9678 24.0691C50.8922 24.5029 50.8048 24.0848 50.8722 24.967C50.8986 25.2708 50.8877 25.5416 50.9678 25.7239C51.1945 26.2561 51.5577 26.3685 50.8267 26.8593C48.1164 27.9947 46.4322 30.4957 46.4322 33.7362C46.4322 36.7796 48.0709 39.3736 50.3715 40.3663C52.4153 41.51 54.6576 43.7808 54.3772 47.5139L54.3745 47.5158Z" fill="#1E2347"/>
<path fill-rule="evenodd" clip-rule="evenodd" d="M61.7116 44.5386C61.2919 48.3665 59.5266 52.5011 56.9903 55.3171C55.6648 56.7905 54.6533 58.1524 49.9803 61.3689C43.9052 64.776 38.5284 67.0404 35.3976 69.5C32.2659 67.0404 26.8909 64.7724 20.814 61.3689C16.1419 58.1524 15.1305 56.7886 13.804 55.3171C11.2686 52.5011 9.50424 48.3665 9.08455 44.5386C8.57108 39.5973 10.4392 35.2232 13.5236 32.1973C14.5041 31.0628 13.8504 30.4974 13.3843 29.5978C12.5504 27.9946 12.3556 27.2828 10.9527 24.4954C10.2043 23.0036 9.82378 21.9096 10.0195 20.9492C10.7196 18.3938 13.388 17.4149 14.3202 16.2694C14.485 16.065 14.8246 15.948 14.9265 15.7482C15.0263 15.5253 15.0425 15.2733 14.9721 15.0392C14.9721 15.0309 13.9324 12.9986 14.0389 12.6744C14.2547 12.0206 17.7779 10.0739 20.6757 8.89249C24.1798 7.61619 26.0852 7.09684 29.2333 6.29201C33.108 5.2975 35.4013 3.5 35.4013 3.5C35.4013 3.5 37.6918 5.2975 41.5701 6.29017C44.7155 7.09499 46.6182 7.61435 50.1232 8.89065C53.0219 10.0721 56.546 12.0215 56.7609 12.6726C56.8674 12.9967 55.8304 15.029 55.8259 15.0373C55.756 15.2717 55.7732 15.5239 55.8741 15.7464C55.9743 15.9462 56.3157 16.0631 56.4814 16.2676C57.4163 17.414 60.0802 18.3929 60.7803 20.9473C60.976 21.9087 60.5982 23.0027 59.8453 24.4935C58.4442 27.2837 58.253 27.9927 57.4164 29.5978C56.9484 30.4974 56.2938 31.0628 57.2771 32.1983C60.3606 35.2232 62.2296 39.6 61.7152 44.5376L61.7116 44.5386ZM60.0283 43.498C59.9827 39.4785 58.629 35.8393 55.7312 32.9552C54.0015 31.3465 54.748 30.9993 55.3088 29.9302C56.1509 28.3224 56.0071 28.3307 57.4118 25.3425C58.0491 23.9926 59.1871 22.0827 58.7674 20.8037C58.2521 19.671 55.6966 17.9315 55.5409 17.8275C54.6888 17.251 54.0952 16.8357 53.4853 16.2676C53.1876 15.7703 53.5335 15.5106 53.5335 15.5106C53.5335 15.5106 54.626 13.7306 54.4676 13.4295C53.6255 11.8226 45.6368 9.17427 41.195 8.13371C39.0601 7.63461 35.4013 5.58112 35.4013 5.58112C35.4013 5.58112 31.7387 7.63461 29.6075 8.13371C25.163 9.17427 17.1697 11.8226 16.3304 13.4295C16.171 13.7306 17.2635 15.5106 17.2635 15.5106C17.2635 15.5106 17.6095 15.7703 17.3118 16.2676C16.7045 16.8357 16.1064 17.2501 15.2534 17.8275C15.1004 17.9306 12.5431 19.6692 12.0278 20.8037C11.6082 22.0827 12.748 23.9926 13.3852 25.3425C14.79 28.3307 14.6443 28.3224 15.4864 29.9284C16.0481 30.9975 16.7956 31.3446 15.0667 32.9534C12.169 35.8375 10.8143 39.4766 10.7688 43.4962C11.0474 47.7505 12.402 51.2967 16.517 55.7434C17.8416 57.2168 19.6943 58.7703 24.4146 61.3229C28.8564 63.6397 32.1275 65.0063 35.3512 67.4216C38.5776 65.0099 41.9424 63.6397 46.3833 61.3229C51.1037 58.7703 52.9563 57.2168 54.2828 55.7434C58.3941 51.3003 59.7451 47.7542 60.0292 43.4962L60.0283 43.498Z" fill="#1E2347"/>
<path fill-rule="evenodd" clip-rule="evenodd" d="M43.8196 35.4903C42.9393 33.7407 41.4444 32.5334 39.793 32.0583L39.884 31.7286C40.7717 30.4044 41.1476 28.6502 41.1932 26.9982C41.194 26.6963 41.1663 26.3951 41.1103 26.0985C41.2988 25.9586 41.9597 26.3407 42.5014 27.1419C43.1077 28.0388 43.8096 27.2846 43.2015 26.8094C42.7308 26.4411 42.2674 24.6841 42.2201 24.3517C42.1727 24.0193 42.1746 22.7918 42.2683 22.6021C42.4768 22.1794 42.2683 20.9934 41.7066 22.1288C41.1449 23.2642 40.3492 22.9796 40.3492 22.9796C39.9295 22.0827 38.8016 20.2631 36.7987 19.7659C37.0773 19.055 38.1042 18.1083 39.5963 17.4932C40.3683 17.1792 40.982 16.9674 41.6129 16.9278C41.845 16.5033 41.8942 16.2188 41.7039 16.2188C40.534 16.2188 38.8698 16.7621 38.1606 17.0926C37.4477 17.4066 36.6875 17.5965 35.912 17.6544C35.2695 17.716 34.6219 17.6922 33.9856 17.5834C32.9439 17.4057 31.9154 17.1559 30.9075 16.8357C29.8779 16.1239 29.785 17.2114 29.9589 17.3542C30.6346 17.5567 31.2859 17.8347 31.9008 18.1829C32.5107 18.6433 32.935 19.183 33.291 19.6729C32.3205 20.0311 31.401 20.7401 31.0004 21.4225C30.5989 20.753 29.6849 20.1434 28.9903 20.1434C27.2833 19.9592 26.4202 21.1186 26.4202 22.2006C26.4248 22.4603 26.4853 22.7159 26.5975 22.9496C26.7098 23.1832 26.8711 23.3892 27.0702 23.5533C27.0702 23.5533 27.6811 23.8793 28.0835 23.5533C28.2383 23.4235 28.1026 23.2034 28.1026 23.034C27.7294 22.5588 27.8623 21.8019 28.6643 21.8019C29.4664 21.8019 30.1219 22.556 30.1219 23.406C28.3921 24.3268 26.9901 25.989 26.9901 27.826C26.9901 29.769 28.1582 31.4892 30.496 32.3382V41.7962C30.496 41.7962 30.5871 42.8368 29.5137 41.5117C29.2406 41.1737 28.9283 41.0062 28.5778 40.4739C27.316 38.4407 26.3674 36.6432 26.0552 36.6432C25.6345 36.6432 25.2613 36.6901 25.7283 37.4462C26.1568 38.1417 26.383 38.9453 26.3811 39.7649C26.3811 40.5199 26.5377 41.4463 24.9326 42.742C24.2316 43.3101 24.8871 43.8774 25.4934 43.3101C26.0998 42.7429 26.6624 42.8368 26.8445 42.8368C27.3616 42.8368 28.5742 42.9289 29.7441 44.208C29.9407 44.2782 30.1099 44.4101 30.227 44.5846C30.3441 44.7591 30.403 44.9669 30.395 45.1776C30.3991 45.3167 30.3755 45.4552 30.3258 45.5849C30.276 45.7146 30.2009 45.8328 30.1051 45.9327C30.0093 46.0325 29.8947 46.1119 29.768 46.1661C29.6413 46.2203 29.5052 46.2482 29.3676 46.2482C29.2301 46.2482 29.0939 46.2203 28.9672 46.1661C28.8405 46.1119 28.7259 46.0325 28.6301 45.9327C28.5343 45.8328 28.4593 45.7146 28.4095 45.5849C28.3597 45.4552 28.3361 45.3167 28.3402 45.1776C28.3402 44.9013 28.4577 44.8691 28.6206 44.6803C28.6206 44.6803 28.4331 44.0661 27.733 44.5883C27.4781 44.7724 26.8909 45.44 27.0784 45.9124C27.1249 47.0939 28.6552 48.384 30.8629 47.2366C31.2271 47.8297 31.9008 48.6409 32.5927 49.0783C33.3083 49.5314 34.0347 49.606 33.9737 49.8039C33.8103 50.3147 33.5397 50.7838 33.1806 51.179C32.8214 51.5743 32.382 51.8864 31.8926 52.0941C30.822 52.2718 29.8815 52.246 29.7432 51.3454C29.0431 49.8804 30.7692 50.2589 30.2566 49.2671C29.8342 49.1234 29.2752 49.1704 29.0467 49.2754C28.3056 49.7422 27.824 50.4725 27.824 51.3013C27.824 52.7092 29.227 53.8538 30.9567 53.8538C31.6608 53.8599 32.3514 53.6583 32.9441 53.2737C33.6415 52.8041 34.4626 52.433 34.8814 51.7709C35.3484 52.433 36.8588 53.3078 37.2657 53.5684C38.0132 54.0408 40.3492 54.3253 38.6677 53.1899C35.9711 51.3722 36.3781 49.5065 36.3781 49.5065C38.1989 49.4595 41.3334 46.9051 41.7704 43.7659C44.4369 42.1867 45.3609 38.5585 43.8169 35.494L43.8196 35.4903ZM30.4933 30.2608C29.3226 29.6466 28.9029 28.7515 28.9029 27.8491C28.9029 26.9144 29.5638 25.9797 30.4933 25.2974V30.2608ZM34.2769 21.137V22.4593C33.1553 22.3673 32.2677 22.6969 32.2222 22.6638C32.4343 21.9427 33.1644 21.2098 34.2769 21.137ZM34.2769 24.0414V30.9717C34.2769 30.9717 33.2509 31.0638 32.7356 30.875C32.6374 30.8427 32.5481 30.7873 32.4751 30.7134C32.4022 30.6394 32.3476 30.549 32.3159 30.4495V24.4042C32.9535 24.2078 33.6117 24.0876 34.2769 24.046V24.0414ZM34.2769 47.8131C33.0652 47.4355 32.5089 46.2753 32.4561 45.4833C32.955 45.5754 33.5786 45.8158 34.2769 45.7669V47.8131ZM34.2769 43.6398C34.2769 43.9299 33.3529 43.8424 32.7811 43.404C32.5573 43.2223 32.3945 42.9749 32.315 42.6959V35.2702H34.2769V43.6398ZM34.3252 33.6642H32.3614V32.6264C33.0116 32.7232 33.668 32.7699 34.3252 32.7664V33.6642ZM36.3808 21.3654C37.3458 21.6122 38.1106 22.2964 38.3427 22.9778C38.2517 22.9778 36.7541 22.4566 36.3808 22.5514V21.3654ZM36.3735 24.069C36.9353 24.069 36.8488 24.2532 37.6417 24.3029C38.0141 24.441 38.8753 24.5469 39.0902 24.8701C39.3587 25.2642 39.4042 26.0847 39.3715 26.9954C39.2449 29.328 38.858 30.258 38.1097 31.2507C37.9886 31.6006 37.6026 31.5187 37.222 31.4395C36.9434 31.3848 36.663 31.3382 36.3808 31.2995L36.3735 24.069ZM36.4291 47.7017V45.7679C37.7155 45.6933 38.8043 45.4585 39.2777 45.2025C39.2322 45.9106 37.9686 47.1979 36.4291 47.7063V47.7017ZM39.5617 43.0228C38.8125 43.4492 38.1561 43.7309 37.5489 43.7788C36.4291 43.7309 36.3808 43.8847 36.3808 43.6867V35.935C36.3808 35.935 39.9314 36.9756 40.0734 41.276C40.0852 41.6498 40.1644 42.741 39.5617 43.0256V43.0228ZM41.7576 40.7603L41.7185 40.6572C41.6748 39.6783 41.3479 38.53 40.7371 37.4139C39.7739 35.6542 38.2034 34.4175 37.2685 34.1817C37.3409 34.0926 37.43 34.0187 37.5307 33.9644C38.5321 33.1421 40.8081 34.1891 41.8796 36.1385C42.9238 37.5861 42.7627 39.845 41.7576 40.7603Z" fill="#1E2347"/>
</svg>
