<svg width="40" height="40" viewBox="0 0 40 40" fill="none" xmlns="http://www.w3.org/2000/svg">
<path fill-rule="evenodd" clip-rule="evenodd" d="M31.4289 24.543C31.1958 24.3071 30.5519 24.4944 30.472 24.6217C30.2136 23.7521 29.6982 23.0057 29.068 22.5278C29.068 22.5278 29.0655 22.3641 29.1439 22.2848C29.291 22.205 29.7154 22.2588 30.0543 22.1012C30.3127 21.9804 30.3648 22.7831 31.0658 22.6782C31.5635 22.6036 31.5599 22.0741 31.2737 22.1268C31.1852 22.0986 31.0683 22.315 30.9631 22.337C30.598 22.4163 30.5474 21.8643 30.5474 21.6285C30.5474 21.5231 30.7542 20.8611 30.598 20.4191C30.4037 19.862 29.7832 19.555 29.508 19.3693C29.4306 19.3182 29.2936 18.9918 29.4574 18.8695C29.8464 18.581 29.0938 18.318 28.9643 18.9744C28.893 19.3366 29.0382 19.4348 29.0149 19.6323C28.9886 19.8686 28.283 20.3485 28.8591 20.7885C29.1712 21.0248 29.2668 20.635 29.1191 20.4462C28.8338 20.0784 30.1306 19.5254 30.1837 20.9189C30.204 21.4975 29.2617 21.7589 29.0538 21.8398C27.4698 21.8398 26.1851 20.305 26.1851 18.4122C26.1851 16.948 26.9731 15.6854 28.0534 15.1938C28.4955 14.6955 30.3132 14.7748 30.2358 13.9865C30.1817 13.4488 29.6638 13.1715 29.376 13.4611C29.2465 13.7235 29.6876 13.7506 29.6618 14.0125C29.638 14.2555 29.2066 14.3195 28.9092 14.1174C28.7575 14.0151 28.7013 13.8565 28.675 13.592C28.5708 12.5417 30.6475 11.7805 30.6475 11.7805C30.6475 11.7805 28.933 11.2551 28.8809 10.7573C28.8379 10.3389 29.0371 10.2846 29.2197 10.5205C29.3275 10.6612 29.6355 10.3629 29.2703 10.0222C28.9851 9.83752 28.5683 10.0012 28.4403 10.4422C28.3124 10.8832 26.703 8.91565 26.4956 8.33858C26.3945 8.05875 26.4992 7.4382 26.8325 7.55023C27.0672 7.63004 27.0156 7.78659 26.9367 7.89146C26.8436 8.01884 26.926 8.24087 27.0935 8.25929C27.2609 8.27771 27.5213 8.08944 27.535 7.76101C27.5603 7.13022 26.3667 6.65701 26.0546 7.63004C25.9894 7.8316 25.8199 7.55023 25.6909 7.44536C25.4037 7.21208 23.6137 5.05576 21.225 5.02864C20.3146 5.01892 20.7308 5.25016 20.2893 5.21384C19.9787 5.18672 19.7689 4.74062 19.6399 4.58203C19.563 4.71248 19.303 5.1857 18.991 5.21281C18.5504 5.24914 18.9692 5.01841 18.0568 5.02762C15.667 5.05525 13.8786 7.21106 13.5908 7.44434C13.4603 7.54665 13.2914 7.83058 13.2272 7.62902C12.9151 6.65701 11.7215 7.1292 11.7468 7.75998C11.7599 8.08842 12.0199 8.2777 12.1878 8.25827C12.3557 8.23882 12.4377 8.01782 12.3441 7.89044C12.2652 7.78812 12.2146 7.62902 12.4478 7.54921C12.7826 7.43717 12.8868 8.05772 12.7851 8.33756C12.5773 8.91463 10.9674 10.8852 10.8384 10.4386C10.7094 9.99202 10.2932 9.83496 10.0074 10.0196C9.64378 10.3604 9.95179 10.6586 10.058 10.5179C10.2396 10.2821 10.4389 10.3363 10.3969 10.7548C10.3433 11.2541 8.63021 11.778 8.63021 11.778C8.63021 11.778 9.47232 12.1054 10.058 12.618C10.3751 12.8953 10.6396 13.2216 10.6037 13.59C10.5779 13.855 10.5213 14.0131 10.3701 14.1154C10.0717 14.32 9.64125 14.2535 9.61748 14.0105C9.59067 13.7491 10.0317 13.722 9.90273 13.459C9.61748 13.1695 9.09906 13.4472 9.04292 13.9849C8.96604 14.7733 10.7833 14.6935 11.2243 15.1923C12.3062 15.6834 13.0957 16.946 13.0957 18.4101C13.0957 20.303 11.811 21.8377 10.2269 21.8377C10.0191 21.7584 9.07478 21.4965 9.09704 20.9169C9.14761 19.5243 10.4469 20.0758 10.1592 20.4437C10.0115 20.635 10.1086 21.0223 10.4191 20.7864C10.9952 20.3485 10.2896 19.8656 10.2633 19.6302C10.2411 19.4307 10.3863 19.334 10.3139 18.9723C10.185 18.316 9.43034 18.5784 9.81979 18.87C9.98366 18.9923 9.84659 19.3171 9.76921 19.3698C9.49306 19.5555 8.87247 19.8625 8.67826 20.4191C8.52349 20.8632 8.72883 21.5236 8.72883 21.6285C8.72883 21.8643 8.67826 22.4168 8.31359 22.3375C8.20789 22.3155 8.09055 22.0986 8.00153 22.1268C7.71627 22.0756 7.71172 22.6041 8.2094 22.6782C8.9104 22.7806 9.06922 21.9697 9.24877 22.049C9.74038 22.2613 9.98315 22.205 10.1303 22.2848C10.2092 22.3641 10.2082 22.5278 10.2082 22.5278C9.576 23.0057 9.06214 23.7515 8.80369 24.6217C8.72428 24.4949 8.07993 24.3071 7.84676 24.5435C7.5605 24.8064 7.65002 25.1349 7.66469 25.2536C7.69048 25.4628 8.13607 25.515 8.07993 25.095C8.02935 24.701 8.54777 24.8335 8.62515 25.227C8.7263 25.8306 8.568 26.0726 8.59834 26.2777C8.85932 27.9588 10.0484 29.0086 11.4428 29.0086C11.666 29.0105 11.8887 28.9863 12.1064 28.9364C12.3537 28.8771 12.4943 29.3237 12.7022 29.6915C12.7022 29.6915 11.8454 30.0322 11.9496 30.6891C12.0538 31.346 12.6506 31.6877 13.0911 31.1096C13.2727 30.8738 12.9616 30.8467 12.6248 30.8467C12.3689 30.6635 12.3942 30.3469 13.0137 30.2169C13.7668 30.0594 14.441 31.6877 14.702 32.3707C14.963 33.0537 16.3888 34.9445 18.337 34.4973C18.466 34.4682 19.6343 36.2577 19.6343 36.2577C19.6343 36.2577 20.8042 34.4672 20.9336 34.4973C22.8814 34.9445 24.3097 33.0526 24.5686 32.3707C24.8276 31.6888 25.5038 30.0594 26.2564 30.2169C26.8765 30.3469 26.9018 30.6635 26.6458 30.8467C26.309 30.8467 25.998 30.8738 26.179 31.1096C26.619 31.6877 27.2174 31.347 27.3211 30.6891C27.4247 30.0312 26.5685 29.6915 26.5685 29.6915C26.7763 29.3237 26.9159 28.8771 27.1643 28.9364C27.3818 28.9863 27.6043 29.0105 27.8273 29.0086C29.2223 29.0086 30.5418 27.9588 30.6187 26.1985C30.6288 25.9938 30.5681 25.5799 30.6455 25.2264C30.7229 24.833 31.2428 24.7005 31.1907 25.0945C31.1351 25.515 31.5797 25.4623 31.6065 25.253C31.6191 25.1344 31.7076 24.8054 31.4234 24.5425L31.4289 24.543ZM19.3293 7.15683C19.5625 6.81407 19.6394 6.39508 19.6915 6.60381C19.781 6.96191 20.0819 7.12971 19.9514 7.2351C19.7522 7.39625 19.2434 7.28268 19.3293 7.15683ZM19.6394 35.3906L18.9657 34.3925L19.6394 33.4476L20.3151 34.3925L19.6394 35.3906ZM30.208 26.1197C30.208 27.4841 29.1327 28.5891 27.8076 28.5891C27.2415 28.5896 26.6939 28.385 26.264 28.0125C25.9346 27.6502 25.7487 27.1777 25.742 26.6855C25.742 25.7344 26.4456 24.9645 27.2477 24.9645C27.3519 25.0387 27.4824 24.9134 27.6635 25.4884C27.8976 25.5943 27.9229 25.4004 27.9229 25.1748C27.9229 24.8064 27.534 24.6489 27.0667 24.4657C26.7237 24.3301 27.0161 23.5868 26.4951 23.5449C26.1578 23.5188 26.0273 23.6769 26.1062 23.9122C26.1568 24.1168 26.3424 23.928 26.443 23.992C26.7814 24.2023 26.3075 24.7982 26.3075 24.7982C25.7698 25.2812 25.4305 25.9621 25.4305 26.6706C25.4305 27.1219 25.5691 27.5183 25.7688 27.9056C25.9995 28.1977 26.2109 28.4683 26.4592 28.6315C26.4592 28.6315 26.7015 29.2193 26.0809 29.7437C25.7688 30.0067 25.4573 29.6644 24.4179 31.5025C24.3648 31.5992 24.1868 31.2201 23.7958 31.083C23.5348 30.925 22.7559 31.083 22.7049 31.7665C22.6543 32.3958 23.2764 32.0822 23.4317 31.5563C23.6309 31.4243 23.814 31.6637 23.9506 31.9231C24.1387 32.2812 23.7427 33.1319 22.6791 33.8159C21.7181 34.4196 20.004 34.1311 20.0556 32.9749C20.0946 32.1205 21.2513 31.9236 21.094 32.6065C21.0004 33.0199 22.0812 33.0797 21.5623 32.186C21.0434 31.2923 19.8483 32.0837 19.6404 32.6065C19.433 32.0827 18.2389 31.2928 17.7184 32.186C17.198 33.0792 18.2804 33.0199 18.1863 32.6065C18.03 31.9236 19.1862 32.1205 19.2241 32.9749C19.2747 34.1311 17.5627 34.4196 16.6017 33.8159C15.5396 33.1324 15.141 32.2812 15.3297 31.9231C15.4672 31.6642 15.6488 31.4243 15.8491 31.5563C16.0049 32.0822 16.625 32.3963 16.5754 31.7665C16.5248 31.083 15.7454 30.9255 15.4855 31.083C15.094 31.2201 14.916 31.5992 14.8618 31.5025C13.8235 29.6639 13.5119 30.0067 13.1999 29.7437C12.5793 29.2193 12.8221 28.6315 12.8221 28.6315C13.0446 28.3757 13.3061 28.2499 13.5377 27.9578C13.7421 27.5601 13.8496 27.1188 13.8513 26.6706C13.8513 25.9616 13.5119 25.2812 12.9758 24.7982C12.9758 24.7982 12.5019 24.2023 12.8393 23.992C12.9404 23.928 13.124 24.1178 13.1776 23.9122C13.2545 23.6769 13.2247 23.6083 12.7872 23.572C12.1651 23.5208 12.5606 24.3291 12.2166 24.4652C11.7493 24.6478 11.3568 24.8059 11.3568 25.1737C11.3568 25.3999 11.3836 25.5932 11.6168 25.4879C11.7994 24.9113 11.9289 25.0382 12.0325 24.9635C12.8357 24.9635 13.5382 25.7339 13.5382 26.6845C13.5321 27.1769 13.3466 27.6498 13.0173 28.0125C12.5872 28.3843 12.0399 28.5883 11.4742 28.5875C10.1485 28.5875 9.07326 27.4825 9.07326 26.1186C8.91597 24.0447 10.1627 22.7831 11.2987 22.1477C12.5757 21.5942 13.4866 20.1526 13.4866 18.4643C13.4866 16.6641 12.5515 15.2746 11.0443 14.6438C10.6396 14.3701 10.842 14.3088 10.9674 14.0131C11.0109 13.9107 11.0058 13.7614 11.018 13.5925C11.0569 13.1024 11.0084 13.3367 10.9674 13.0937C10.9522 13.0134 10.8379 12.9254 10.8632 12.6737C10.9674 11.6761 12.0078 12.1038 12.0836 12.4901C12.162 12.884 12.0234 12.8446 11.9278 12.9367C11.4868 12.7786 11.6411 13.0646 11.6679 13.1464C11.7463 13.3823 12.0062 13.4657 12.3178 13.2518C12.5768 13.1725 12.683 12.7832 12.7593 12.8052C13.257 12.95 13.4866 12.3852 13.2788 12.3581C13.0709 12.331 12.8109 12.5955 12.6299 12.3581C12.0047 11.5477 10.9704 11.5907 10.7858 11.9376C10.4474 12.5683 10.1622 12.2271 10.1622 12.2271C10.1622 12.2271 9.69587 11.8874 9.74645 11.8598C10.5516 11.4132 10.9163 11.1579 12.162 9.91579C12.7072 9.2845 14.0192 7.51749 14.3687 7.23663C15.5123 6.31579 17.6664 4.71504 18.9136 5.71365C19.4103 6.11218 19.2241 6.55316 19.0426 6.71175C18.8352 6.92099 18.6921 6.20017 18.6015 6.23802C18.3153 6.28918 18.7573 6.76342 18.5509 6.97368C18.3572 7.18445 18.0083 6.92917 18.031 6.71175C18.0816 6.21193 16.9411 7.15836 18.3163 7.55177C18.6101 7.63465 18.6025 7.44945 18.8104 7.47247C19.0183 7.4955 19.2767 7.76203 19.6404 7.70934C20.004 7.76049 20.264 7.49908 20.4724 7.47247C20.6808 7.44587 20.6747 7.63465 20.965 7.55177C22.3417 7.15836 21.1982 6.21193 21.2518 6.71175C21.2745 6.92917 20.925 7.18445 20.7318 6.97368C20.5245 6.76342 20.965 6.29123 20.6813 6.23802C20.5892 6.19812 20.4476 6.92099 20.2402 6.71175C20.0571 6.55316 19.8725 6.11218 20.3692 5.71365C21.6149 4.71453 23.7705 6.31732 24.9136 7.23663C25.2631 7.51698 26.575 9.28296 27.1208 9.91579C28.365 11.1574 28.6007 11.3334 29.5363 11.8598C29.5869 11.8879 29.0938 12.2532 29.0938 12.2532C29.0938 12.2532 28.8606 12.4374 28.497 11.9376C28.2658 11.6214 27.276 11.5477 26.6529 12.3581C26.4714 12.5955 26.2119 12.3325 26.004 12.3581C25.7962 12.3837 26.0258 12.95 26.5235 12.8052C26.5998 12.7832 26.7045 13.1725 26.9645 13.2518C27.276 13.4657 27.536 13.3823 27.6149 13.1464C27.6417 13.0646 27.796 12.7786 27.3539 12.9367C27.2594 12.8446 27.1208 12.8855 27.1992 12.4901C27.275 12.1038 28.3154 11.6761 28.4196 12.6737C28.4449 12.9254 28.3291 13.0134 28.3154 13.0937C28.2734 13.3347 28.2249 13.1024 28.2623 13.5925C28.277 13.7614 28.2709 13.9118 28.3154 14.0131C28.4413 14.3088 28.6431 14.3712 28.237 14.6438C26.7313 15.2746 25.7956 16.6641 25.7956 18.4643C25.7956 20.1551 26.706 21.5962 27.9841 22.1477C29.1196 22.7831 30.3653 24.0447 30.2095 26.1186L30.208 26.1197Z" fill="#1E2347"/>
<path fill-rule="evenodd" clip-rule="evenodd" d="M34.2842 24.4652C34.0511 26.5919 33.0704 28.8889 31.6613 30.4533C30.9249 31.2718 30.363 32.0284 27.7668 33.8154C24.3918 35.7083 21.4047 36.9662 19.6653 38.3327C17.9255 36.9662 14.9394 35.7062 11.5634 33.8154C8.96773 32.0284 8.40581 31.2708 7.6689 30.4533C6.26032 28.8889 5.28013 26.5919 5.04697 24.4652C4.76171 21.7201 5.79956 19.29 7.51312 17.609C8.05784 16.9787 7.69469 16.6646 7.43574 16.1648C6.97245 15.2741 6.86421 14.8787 6.08482 13.3301C5.66907 12.5013 5.45766 11.8936 5.5664 11.36C5.95534 9.94036 7.43776 9.39654 7.95567 8.76013C8.04722 8.64656 8.23587 8.58159 8.29252 8.47058C8.34797 8.34674 8.35696 8.20671 8.31781 8.07666C8.31781 8.07205 7.74021 6.94299 7.79939 6.76291C7.91926 6.39969 9.8766 5.3182 11.4865 4.66184C13.4332 3.95279 14.4918 3.66426 16.2407 3.21713C18.3933 2.66463 19.6674 1.66602 19.6674 1.66602C19.6674 1.66602 20.9399 2.66463 23.0945 3.21611C24.8419 3.66323 25.899 3.95177 27.8462 4.66082C29.4566 5.31718 31.4145 6.4002 31.5338 6.76189C31.593 6.94197 31.0169 8.07103 31.0144 8.07564C30.9756 8.20586 30.9851 8.34594 31.0412 8.46955C31.0968 8.58057 31.2865 8.64554 31.3785 8.75911C31.898 9.39603 33.3779 9.93984 33.7668 11.359C33.8755 11.8931 33.6656 12.5008 33.2474 13.3291C32.469 14.8792 32.3628 15.2731 31.898 16.1648C31.638 16.6646 31.2744 16.9787 31.8206 17.6095C33.5336 19.29 34.572 21.7216 34.2862 24.4647L34.2842 24.4652ZM33.349 23.8871C33.3237 21.6541 32.5717 19.6323 30.9618 18.03C30.0008 17.1363 30.4156 16.9434 30.7271 16.3495C31.1949 15.4562 31.115 15.4608 31.8954 13.8008C32.2495 13.0508 32.8817 11.9898 32.6485 11.2792C32.3623 10.6499 30.9426 9.68354 30.8561 9.62573C30.3827 9.30548 30.0529 9.07476 29.714 8.75911C29.5487 8.48285 29.7409 8.33859 29.7409 8.33859C29.7409 8.33859 30.3478 7.3497 30.2598 7.18241C29.7919 6.2897 25.3538 4.81839 22.8861 4.2403C21.7001 3.96302 19.6674 2.82219 19.6674 2.82219C19.6674 2.82219 17.6326 3.96302 16.4486 4.2403C13.9794 4.81839 9.53874 6.2897 9.07242 7.18241C8.98391 7.3497 9.59084 8.33859 9.59084 8.33859C9.59084 8.33859 9.78303 8.48285 9.61764 8.75911C9.28029 9.07476 8.948 9.30497 8.47409 9.62573C8.38912 9.68303 6.9684 10.6489 6.68214 11.2792C6.44897 11.9898 7.0822 13.0508 7.43624 13.8008C8.21665 15.4608 8.13573 15.4562 8.60357 16.3484C8.91563 16.9424 9.33087 17.1353 8.37041 18.029C6.76053 19.6313 6.00794 21.653 5.98265 23.8861C6.13742 26.2496 6.89001 28.2197 9.1761 30.6901C9.912 31.5087 10.9413 32.3717 13.5637 33.7898C16.0314 35.077 17.8486 35.8362 19.6395 37.178C21.432 35.8382 23.3013 35.077 25.7685 33.7898C28.3909 32.3717 29.4202 31.5087 30.1571 30.6901C32.4412 28.2218 33.1917 26.2517 33.3495 23.8861L33.349 23.8871Z" fill="#1E2347"/>
<path fill-rule="evenodd" clip-rule="evenodd" d="M24.3443 19.4388C23.8552 18.4668 23.0247 17.7961 22.1072 17.5322L22.1578 17.349C22.6509 16.6134 22.8598 15.6388 22.8851 14.721C22.8856 14.5533 22.8702 14.3859 22.8391 14.2212C22.9438 14.1434 23.311 14.3557 23.6119 14.8008C23.9488 15.2991 24.3387 14.8801 24.0008 14.6161C23.7394 14.4115 23.4819 13.4354 23.4556 13.2507C23.4293 13.066 23.4303 12.3841 23.4824 12.2787C23.5983 12.0439 23.4824 11.385 23.1704 12.0158C22.8583 12.6465 22.4163 12.4885 22.4163 12.4885C22.1831 11.9902 21.5564 10.9793 20.4437 10.703C20.5985 10.3081 21.169 9.78219 21.998 9.44045C22.4269 9.266 22.7678 9.14834 23.1183 9.12634C23.2472 8.8905 23.2746 8.73242 23.1688 8.73242C22.5189 8.73242 21.5944 9.03426 21.2004 9.21791C20.8043 9.39235 20.3819 9.49785 19.9511 9.52998C19.5942 9.56422 19.2344 9.55098 18.8809 9.49059C18.3022 9.39186 17.7308 9.25307 17.1709 9.07518C16.5988 8.67973 16.5473 9.28391 16.6439 9.3632C17.0192 9.47572 17.3811 9.63015 17.7227 9.82363C18.0615 10.0794 18.2972 10.3792 18.495 10.6514C17.9558 10.8504 17.445 11.2443 17.2225 11.6234C16.9994 11.2515 16.4916 10.9128 16.1057 10.9128C15.1574 10.8105 14.6779 11.4546 14.6779 12.0557C14.6804 12.2 14.7141 12.342 14.7764 12.4718C14.8388 12.6016 14.9284 12.716 15.039 12.8072C15.039 12.8072 15.3784 12.9883 15.602 12.8072C15.6879 12.735 15.6126 12.6128 15.6126 12.5186C15.4052 12.2547 15.4791 11.8341 15.9247 11.8341C16.3702 11.8341 16.7344 12.2531 16.7344 12.7253C15.7734 13.2369 14.9945 14.1603 14.9945 15.1809C14.9945 16.2604 15.6434 17.216 16.9423 17.6877V22.9421C16.9423 22.9421 16.9928 23.5202 16.3965 22.7841C16.2448 22.5963 16.0713 22.5032 15.8766 22.2075C15.1756 21.0779 14.6486 20.0793 14.4751 20.0793C14.2414 20.0793 14.0341 20.1054 14.2935 20.5254C14.5316 20.9119 14.6573 21.3583 14.6562 21.8136C14.6562 22.2331 14.7432 22.7477 13.8515 23.4675C13.462 23.7832 13.8262 24.0983 14.163 23.7832C14.4999 23.468 14.8125 23.5202 14.9136 23.5202C15.2009 23.5202 15.8746 23.5714 16.5245 24.282C16.6337 24.321 16.7277 24.3943 16.7928 24.4912C16.8579 24.5882 16.8906 24.7036 16.8861 24.8207C16.8884 24.8979 16.8753 24.9749 16.8477 25.0469C16.82 25.119 16.7783 25.1847 16.7251 25.2401C16.6719 25.2956 16.6082 25.3397 16.5378 25.3698C16.4674 25.3999 16.3918 25.4154 16.3154 25.4154C16.2389 25.4154 16.1633 25.3999 16.0929 25.3698C16.0225 25.3397 15.9589 25.2956 15.9056 25.2401C15.8524 25.1847 15.8107 25.119 15.7831 25.0469C15.7554 24.9749 15.7423 24.8979 15.7446 24.8207C15.7446 24.6672 15.8098 24.6493 15.9004 24.5444C15.9004 24.5444 15.7962 24.2032 15.4072 24.4933C15.2656 24.5956 14.9394 24.9665 15.0436 25.2289C15.0694 25.8853 15.9196 26.602 17.1461 25.9646C17.3484 26.294 17.7227 26.7447 18.1071 26.9877C18.5046 27.2394 18.9082 27.2809 18.8743 27.3909C18.7835 27.6746 18.6332 27.9352 18.4337 28.1548C18.2341 28.3744 17.99 28.5478 17.7181 28.6632C17.1233 28.7619 16.6009 28.7476 16.524 28.2473C16.1351 27.4333 17.094 27.6436 16.8092 27.0926C16.5746 27.0128 16.264 27.0389 16.1371 27.0972C15.7254 27.3566 15.4578 27.7623 15.4578 28.2227C15.4578 29.0049 16.2372 29.6408 17.1982 29.6408C17.5894 29.6442 17.973 29.5322 18.3023 29.3185C18.6897 29.0576 19.1459 28.8514 19.3786 28.4836C19.638 28.8514 20.4771 29.3374 20.7032 29.4822C21.1184 29.7447 22.4163 29.9027 21.4821 29.272C19.984 28.2621 20.2101 27.2256 20.2101 27.2256C21.2216 27.1995 22.963 25.7804 23.2058 24.0364C24.6872 23.1591 25.2005 21.1434 24.3428 19.4409L24.3443 19.4388ZM16.9408 16.5335C16.2903 16.1923 16.0572 15.6951 16.0572 15.1937C16.0572 14.6745 16.4244 14.1552 16.9408 13.7761V16.5335ZM19.0427 11.4648V12.1994C18.4196 12.1483 17.9265 12.3314 17.9012 12.313C18.0191 11.9124 18.4247 11.5052 19.0427 11.4648ZM19.0427 13.0783V16.9285C19.0427 16.9285 18.4727 16.9796 18.1865 16.8748C18.1319 16.8568 18.0823 16.8261 18.0418 16.785C18.0012 16.7439 17.9709 16.6937 17.9533 16.6384V13.2799C18.3075 13.1708 18.6732 13.104 19.0427 13.0809V13.0783ZM19.0427 26.2848C18.3696 26.0751 18.0605 25.4305 18.0312 24.9905C18.3084 25.0417 18.6548 25.1752 19.0427 25.1481V26.2848ZM19.0427 23.9663C19.0427 24.1275 18.5294 24.0789 18.2118 23.8354C18.0874 23.7344 17.997 23.597 17.9528 23.442V19.3166H19.0427V23.9663ZM19.0696 18.4244H17.9786V17.8478C18.3398 17.9015 18.7045 17.9275 19.0696 17.9256V18.4244ZM20.2116 11.5917C20.7477 11.7288 21.1726 12.1089 21.3015 12.4874C21.251 12.4874 20.419 12.1979 20.2116 12.2506V11.5917ZM20.2075 13.0937C20.5196 13.0937 20.4716 13.196 20.9121 13.2236C21.1189 13.3003 21.5974 13.3592 21.7168 13.5387C21.866 13.7577 21.8913 14.2135 21.8731 14.7195C21.8028 16.0153 21.5878 16.532 21.1721 17.0835C21.1048 17.2779 20.8903 17.2324 20.6789 17.1884C20.5242 17.158 20.3684 17.1321 20.2116 17.1106L20.2075 13.0937ZM20.2384 26.2229V25.1486C20.9531 25.1072 21.558 24.9767 21.821 24.8345C21.7957 25.2279 21.0937 25.9431 20.2384 26.2255V26.2229ZM21.9788 23.6236C21.5625 23.8604 21.1978 24.017 20.8605 24.0436C20.2384 24.017 20.2116 24.1024 20.2116 23.9924V19.6859C20.2116 19.6859 22.1841 20.264 22.263 22.6531C22.2696 22.8608 22.3136 23.467 21.9788 23.6251V23.6236ZM23.1987 22.3666L23.1769 22.3093C23.1527 21.7655 22.9711 21.1276 22.6317 20.5075C22.0966 19.5299 21.2241 18.8428 20.7047 18.7119C20.7449 18.6623 20.7944 18.6213 20.8504 18.5911C21.4067 18.1343 22.6712 18.716 23.2665 19.799C23.8466 20.6032 23.7571 21.8581 23.1987 22.3666Z" fill="#1E2347"/>
</svg>
