<svg width="40" height="40" viewBox="0 0 40 40" fill="none" xmlns="http://www.w3.org/2000/svg">
<path fill-rule="evenodd" clip-rule="evenodd" d="M31.4289 24.5439C31.1958 24.3081 30.5519 24.4953 30.472 24.6227C30.2136 23.753 29.6982 23.0066 29.068 22.5288C29.068 22.5288 29.0655 22.3651 29.1439 22.2858C29.291 22.206 29.7154 22.2597 30.0543 22.1022C30.3127 21.9814 30.3648 22.7841 31.0658 22.6792C31.5635 22.6045 31.5599 22.075 31.2737 22.1277C31.1852 22.0996 31.0683 22.316 30.9631 22.338C30.598 22.4173 30.5474 21.8653 30.5474 21.6295C30.5474 21.5241 30.7542 20.8621 30.598 20.4201C30.4037 19.863 29.7832 19.556 29.508 19.3703C29.4306 19.3191 29.2936 18.9928 29.4574 18.8705C29.8464 18.582 29.0938 18.319 28.9643 18.9754C28.893 19.3376 29.0382 19.4358 29.0149 19.6333C28.9886 19.8696 28.283 20.3495 28.8591 20.7894C29.1712 21.0258 29.2668 20.636 29.1191 20.4472C28.8338 20.0794 30.1306 19.5263 30.1837 20.9199C30.204 21.4985 29.2617 21.7599 29.0538 21.8407C27.4698 21.8407 26.1851 20.306 26.1851 18.4131C26.1851 16.949 26.9731 15.6864 28.0534 15.1948C28.4955 14.6965 30.3132 14.7758 30.2358 13.9874C30.1817 13.4498 29.6638 13.1725 29.376 13.462C29.2465 13.7245 29.6876 13.7516 29.6618 14.0135C29.638 14.2565 29.2066 14.3205 28.9092 14.1184C28.7575 14.0161 28.7013 13.8575 28.675 13.593C28.5708 12.5427 30.6475 11.7815 30.6475 11.7815C30.6475 11.7815 28.933 11.2561 28.8809 10.7583C28.8379 10.3398 29.0371 10.2856 29.2197 10.5215C29.3275 10.6621 29.6355 10.3639 29.2703 10.0232C28.9851 9.8385 28.5683 10.0022 28.4403 10.4432C28.3124 10.8842 26.703 8.91662 26.4956 8.33956C26.3945 8.05972 26.4992 7.43917 26.8325 7.55121C27.0672 7.63102 27.0156 7.78756 26.9367 7.89244C26.8436 8.01982 26.926 8.24185 27.0935 8.26026C27.2609 8.27868 27.5213 8.09042 27.535 7.76198C27.5603 7.1312 26.3667 6.65799 26.0546 7.63102C25.9894 7.83258 25.8199 7.55121 25.6909 7.44634C25.4037 7.21305 23.6137 5.05673 21.225 5.02962C20.3146 5.0199 20.7308 5.25113 20.2893 5.21481C19.9787 5.1877 19.7689 4.7416 19.6399 4.58301C19.563 4.71346 19.303 5.18668 18.991 5.21379C18.5504 5.25011 18.9692 5.01939 18.0568 5.0286C15.667 5.05622 13.8786 7.21203 13.5908 7.44531C13.4603 7.54763 13.2914 7.83156 13.2272 7.62999C12.9151 6.65799 11.7215 7.13018 11.7468 7.76096C11.7599 8.0894 12.0199 8.27868 12.1878 8.25924C12.3557 8.2398 12.4377 8.0188 12.3441 7.89141C12.2652 7.7891 12.2146 7.62999 12.4478 7.55019C12.7826 7.43815 12.8868 8.0587 12.7851 8.33854C12.5773 8.9156 10.9674 10.8862 10.8384 10.4396C10.7094 9.99299 10.2932 9.83594 10.0074 10.0206C9.64378 10.3613 9.95179 10.6596 10.058 10.5189C10.2396 10.2831 10.4389 10.3373 10.3969 10.7558C10.3433 11.2551 8.63021 11.7789 8.63021 11.7789C8.63021 11.7789 9.47232 12.1063 10.058 12.6189C10.3751 12.8962 10.6396 13.2226 10.6037 13.591C10.5779 13.856 10.5213 14.014 10.3701 14.1164C10.0717 14.321 9.64125 14.2545 9.61748 14.0115C9.59067 13.7501 10.0317 13.7229 9.90273 13.46C9.61748 13.1704 9.09906 13.4482 9.04292 13.9859C8.96604 14.7742 10.7833 14.6944 11.2243 15.1932C12.3062 15.6844 13.0957 16.9469 13.0957 18.4111C13.0957 20.3039 11.811 21.8387 10.2269 21.8387C10.0191 21.7594 9.07478 21.4975 9.09704 20.9178C9.14761 19.5253 10.4469 20.0768 10.1592 20.4446C10.0115 20.636 10.1086 21.0232 10.4191 20.7874C10.9952 20.3495 10.2896 19.8665 10.2633 19.6312C10.2411 19.4317 10.3863 19.335 10.3139 18.9733C10.185 18.317 9.43034 18.5794 9.81979 18.871C9.98366 18.9933 9.84659 19.3181 9.76921 19.3708C9.49306 19.5565 8.87247 19.8635 8.67826 20.4201C8.52349 20.8641 8.72883 21.5246 8.72883 21.6295C8.72883 21.8653 8.67826 22.4178 8.31359 22.3385C8.20789 22.3165 8.09055 22.0996 8.00153 22.1277C7.71627 22.0766 7.71172 22.605 8.2094 22.6792C8.9104 22.7815 9.06922 21.9707 9.24877 22.05C9.74038 22.2623 9.98315 22.206 10.1303 22.2858C10.2092 22.3651 10.2082 22.5288 10.2082 22.5288C9.576 23.0066 9.06214 23.7525 8.80369 24.6227C8.72428 24.4959 8.07993 24.3081 7.84676 24.5445C7.5605 24.8074 7.65002 25.1358 7.66469 25.2545C7.69048 25.4638 8.13607 25.516 8.07993 25.0959C8.02935 24.702 8.54777 24.8345 8.62515 25.2279C8.7263 25.8316 8.568 26.0736 8.59834 26.2787C8.85932 27.9598 10.0484 29.0095 11.4428 29.0095C11.666 29.0115 11.8887 28.9873 12.1064 28.9374C12.3537 28.8781 12.4943 29.3247 12.7022 29.6925C12.7022 29.6925 11.8454 30.0332 11.9496 30.6901C12.0538 31.347 12.6506 31.6887 13.0911 31.1106C13.2727 30.8748 12.9616 30.8477 12.6248 30.8477C12.3689 30.6645 12.3942 30.3479 13.0137 30.2179C13.7668 30.0603 14.441 31.6887 14.702 32.3717C14.963 33.0546 16.3888 34.9454 18.337 34.4983C18.466 34.4692 19.6343 36.2587 19.6343 36.2587C19.6343 36.2587 20.8042 34.4681 20.9336 34.4983C22.8814 34.9454 24.3097 33.0536 24.5686 32.3717C24.8276 31.6897 25.5038 30.0603 26.2564 30.2179C26.8765 30.3479 26.9018 30.6645 26.6458 30.8477C26.309 30.8477 25.998 30.8748 26.179 31.1106C26.619 31.6887 27.2174 31.348 27.3211 30.6901C27.4247 30.0322 26.5685 29.6925 26.5685 29.6925C26.7763 29.3247 26.9159 28.8781 27.1643 28.9374C27.3818 28.9873 27.6043 29.0115 27.8273 29.0095C29.2223 29.0095 30.5418 27.9598 30.6187 26.1994C30.6288 25.9948 30.5681 25.5809 30.6455 25.2274C30.7229 24.834 31.2428 24.7015 31.1907 25.0954C31.1351 25.5159 31.5797 25.4633 31.6065 25.254C31.6191 25.1353 31.7076 24.8064 31.4234 24.5434L31.4289 24.5439ZM19.3293 7.1578C19.5625 6.81504 19.6394 6.39606 19.6915 6.60478C19.781 6.96289 20.0819 7.13069 19.9514 7.23608C19.7522 7.39722 19.2434 7.28365 19.3293 7.1578ZM19.6394 35.3915L18.9657 34.3934L19.6394 33.4486L20.3151 34.3934L19.6394 35.3915ZM30.208 26.1206C30.208 27.485 29.1327 28.5901 27.8076 28.5901C27.2415 28.5905 26.6939 28.386 26.264 28.0135C25.9346 27.6511 25.7487 27.1787 25.742 26.6865C25.742 25.7354 26.4456 24.9655 27.2477 24.9655C27.3519 25.0397 27.4824 24.9143 27.6635 25.4893C27.8976 25.5952 27.9229 25.4014 27.9229 25.1757C27.9229 24.8074 27.534 24.6498 27.0667 24.4667C26.7237 24.3311 27.0161 23.5878 26.4951 23.5458C26.1578 23.5198 26.0273 23.6778 26.1062 23.9132C26.1568 24.1178 26.3424 23.929 26.443 23.993C26.7814 24.2032 26.3075 24.7992 26.3075 24.7992C25.7698 25.2822 25.4305 25.9631 25.4305 26.6716C25.4305 27.1228 25.5691 27.5193 25.7688 27.9066C25.9995 28.1987 26.2109 28.4693 26.4592 28.6325C26.4592 28.6325 26.7015 29.2203 26.0809 29.7447C25.7688 30.0076 25.4573 29.6654 24.4179 31.5035C24.3648 31.6002 24.1868 31.2211 23.7958 31.084C23.5348 30.9259 22.7559 31.084 22.7049 31.7675C22.6543 32.3967 23.2764 32.0831 23.4317 31.5572C23.6309 31.4252 23.814 31.6647 23.9506 31.924C24.1387 32.2821 23.7427 33.1329 22.6791 33.8169C21.7181 34.4206 20.004 34.132 20.0556 32.9759C20.0946 32.1215 21.2513 31.9245 21.094 32.6075C21.0004 33.0209 22.0812 33.0807 21.5623 32.187C21.0434 31.2933 19.8483 32.0847 19.6404 32.6075C19.433 32.0837 18.2389 31.2938 17.7184 32.187C17.198 33.0802 18.2804 33.0209 18.1863 32.6075C18.03 31.9245 19.1862 32.1215 19.2241 32.9759C19.2747 34.132 17.5627 34.4206 16.6017 33.8169C15.5396 33.1334 15.141 32.2821 15.3297 31.924C15.4672 31.6652 15.6488 31.4252 15.8491 31.5572C16.0049 32.0831 16.625 32.3972 16.5754 31.7675C16.5248 31.084 15.7454 30.9265 15.4855 31.084C15.094 31.2211 14.916 31.6002 14.8618 31.5035C13.8235 29.6649 13.5119 30.0076 13.1999 29.7447C12.5793 29.2203 12.8221 28.6325 12.8221 28.6325C13.0446 28.3767 13.3061 28.2509 13.5377 27.9588C13.7421 27.5611 13.8496 27.1198 13.8513 26.6716C13.8513 25.9626 13.5119 25.2822 12.9758 24.7992C12.9758 24.7992 12.5019 24.2032 12.8393 23.993C12.9404 23.929 13.124 24.1188 13.1776 23.9132C13.2545 23.6778 13.2247 23.6093 12.7872 23.573C12.1651 23.5218 12.5606 24.3301 12.2166 24.4662C11.7493 24.6488 11.3568 24.8069 11.3568 25.1747C11.3568 25.4008 11.3836 25.5942 11.6168 25.4888C11.7994 24.9123 11.9289 25.0392 12.0325 24.9645C12.8357 24.9645 13.5382 25.7349 13.5382 26.6854C13.5321 27.1779 13.3466 27.6507 13.0173 28.0135C12.5872 28.3853 12.0399 28.5892 11.4742 28.5885C10.1485 28.5885 9.07326 27.4835 9.07326 26.1196C8.91597 24.0457 10.1627 22.7841 11.2987 22.1487C12.5757 21.5952 13.4866 20.1535 13.4866 18.4653C13.4866 16.6651 12.5515 15.2756 11.0443 14.6448C10.6396 14.3711 10.842 14.3097 10.9674 14.014C11.0109 13.9117 11.0058 13.7623 11.018 13.5935C11.0569 13.1034 11.0084 13.3377 10.9674 13.0947C10.9522 13.0144 10.8379 12.9264 10.8632 12.6747C10.9674 11.6771 12.0078 12.1048 12.0836 12.4911C12.162 12.885 12.0234 12.8456 11.9278 12.9377C11.4868 12.7796 11.6411 13.0656 11.6679 13.1474C11.7463 13.3833 12.0062 13.4666 12.3178 13.2528C12.5768 13.1735 12.683 12.7842 12.7593 12.8062C13.257 12.951 13.4866 12.3862 13.2788 12.3591C13.0709 12.332 12.8109 12.5964 12.6299 12.3591C12.0047 11.5487 10.9704 11.5917 10.7858 11.9385C10.4474 12.5693 10.1622 12.2281 10.1622 12.2281C10.1622 12.2281 9.69587 11.8884 9.74645 11.8608C10.5516 11.4142 10.9163 11.1589 12.162 9.91677C12.7072 9.28548 14.0192 7.51847 14.3687 7.23761C15.5123 6.31676 17.6664 4.71602 18.9136 5.71463C19.4103 6.11315 19.2241 6.55414 19.0426 6.71273C18.8352 6.92196 18.6921 6.20114 18.6015 6.239C18.3153 6.29016 18.7573 6.7644 18.5509 6.97466C18.3572 7.18543 18.0083 6.93015 18.031 6.71273C18.0816 6.21291 16.9411 7.15934 18.3163 7.55275C18.6101 7.63562 18.6025 7.45043 18.8104 7.47345C19.0183 7.49647 19.2767 7.76301 19.6404 7.71031C20.004 7.76147 20.264 7.50005 20.4724 7.47345C20.6808 7.44685 20.6747 7.63562 20.965 7.55275C22.3417 7.15934 21.1982 6.21291 21.2518 6.71273C21.2745 6.93015 20.925 7.18543 20.7318 6.97466C20.5245 6.7644 20.965 6.29221 20.6813 6.239C20.5892 6.1991 20.4476 6.92196 20.2402 6.71273C20.0571 6.55414 19.8725 6.11315 20.3692 5.71463C21.6149 4.71551 23.7705 6.3183 24.9136 7.23761C25.2631 7.51796 26.575 9.28394 27.1208 9.91677C28.365 11.1584 28.6007 11.3344 29.5363 11.8608C29.5869 11.8889 29.0938 12.2542 29.0938 12.2542C29.0938 12.2542 28.8606 12.4384 28.497 11.9385C28.2658 11.6224 27.276 11.5487 26.6529 12.3591C26.4714 12.5964 26.2119 12.3335 26.004 12.3591C25.7962 12.3846 26.0258 12.951 26.5235 12.8062C26.5998 12.7842 26.7045 13.1735 26.9645 13.2528C27.276 13.4666 27.536 13.3833 27.6149 13.1474C27.6417 13.0656 27.796 12.7796 27.3539 12.9377C27.2594 12.8456 27.1208 12.8865 27.1992 12.4911C27.275 12.1048 28.3154 11.6771 28.4196 12.6747C28.4449 12.9264 28.3291 13.0144 28.3154 13.0947C28.2734 13.3357 28.2249 13.1034 28.2623 13.5935C28.277 13.7623 28.2709 13.9127 28.3154 14.014C28.4413 14.3097 28.6431 14.3721 28.237 14.6448C26.7313 15.2756 25.7956 16.6651 25.7956 18.4653C25.7956 20.1561 26.706 21.5972 27.9841 22.1487C29.1196 22.7841 30.3653 24.0457 30.2095 26.1196L30.208 26.1206Z" fill="white"/>
<path fill-rule="evenodd" clip-rule="evenodd" d="M34.2842 24.4662C34.0511 26.5928 33.0704 28.8898 31.6613 30.4543C30.9249 31.2728 30.363 32.0294 27.7668 33.8164C24.3918 35.7092 21.4047 36.9672 19.6653 38.3337C17.9255 36.9672 14.9394 35.7072 11.5634 33.8164C8.96773 32.0294 8.40581 31.2718 7.6689 30.4543C6.26032 28.8898 5.28013 26.5928 5.04697 24.4662C4.76171 21.721 5.79956 19.291 7.51312 17.61C8.05784 16.9797 7.69469 16.6656 7.43574 16.1658C6.97245 15.2751 6.86421 14.8796 6.08482 13.3311C5.66907 12.5023 5.45766 11.8946 5.5664 11.361C5.95534 9.94133 7.43776 9.39752 7.95567 8.76111C8.04722 8.64754 8.23587 8.58257 8.29252 8.47155C8.34797 8.34771 8.35696 8.20769 8.31781 8.07764C8.31781 8.07303 7.74021 6.94397 7.79939 6.76389C7.91926 6.40067 9.8766 5.31918 11.4865 4.66282C13.4332 3.95377 14.4918 3.66523 16.2407 3.21811C18.3933 2.6656 19.6674 1.66699 19.6674 1.66699C19.6674 1.66699 20.9399 2.6656 23.0945 3.21709C24.8419 3.66421 25.899 3.95274 27.8462 4.6618C29.4566 5.31816 31.4145 6.40118 31.5338 6.76287C31.593 6.94294 31.0169 8.07201 31.0144 8.07661C30.9756 8.20684 30.9851 8.34691 31.0412 8.47053C31.0968 8.58154 31.2865 8.64651 31.3785 8.76009C31.898 9.39701 33.3779 9.94082 33.7668 11.36C33.8755 11.894 33.6656 12.5018 33.2474 13.3301C32.469 14.8802 32.3628 15.2741 31.898 16.1658C31.638 16.6656 31.2744 16.9797 31.8206 17.6105C33.5336 19.291 34.572 21.7226 34.2862 24.4657L34.2842 24.4662ZM33.349 23.8881C33.3237 21.655 32.5717 19.6333 30.9618 18.031C30.0008 17.1373 30.4156 16.9444 30.7271 16.3504C31.1949 15.4572 31.115 15.4618 31.8954 13.8017C32.2495 13.0518 32.8817 11.9907 32.6485 11.2801C32.3623 10.6509 30.9426 9.68452 30.8561 9.62671C30.3827 9.30646 30.0529 9.07573 29.714 8.76009C29.5487 8.48383 29.7409 8.33957 29.7409 8.33957C29.7409 8.33957 30.3478 7.35068 30.2598 7.18339C29.7919 6.29068 25.3538 4.81936 22.8861 4.24128C21.7001 3.964 19.6674 2.82317 19.6674 2.82317C19.6674 2.82317 17.6326 3.964 16.4486 4.24128C13.9794 4.81936 9.53874 6.29068 9.07242 7.18339C8.98391 7.35068 9.59084 8.33957 9.59084 8.33957C9.59084 8.33957 9.78303 8.48383 9.61764 8.76009C9.28029 9.07573 8.948 9.30595 8.47409 9.62671C8.38912 9.684 6.9684 10.6499 6.68214 11.2801C6.44897 11.9907 7.0822 13.0518 7.43624 13.8017C8.21665 15.4618 8.13573 15.4572 8.60357 16.3494C8.91563 16.9434 9.33087 17.1362 8.37041 18.03C6.76053 19.6322 6.00794 21.654 5.98265 23.8871C6.13742 26.2506 6.89001 28.2207 9.1761 30.6911C9.912 31.5097 10.9413 32.3727 13.5637 33.7908C16.0314 35.0779 17.8486 35.8371 19.6395 37.179C21.432 35.8392 23.3013 35.0779 25.7685 33.7908C28.3909 32.3727 29.4202 31.5097 30.1571 30.6911C32.4412 28.2227 33.1917 26.2526 33.3495 23.8871L33.349 23.8881Z" fill="white"/>
<path fill-rule="evenodd" clip-rule="evenodd" d="M24.3443 19.4388C23.8552 18.4668 23.0247 17.7961 22.1072 17.5322L22.1578 17.349C22.6509 16.6134 22.8598 15.6388 22.8851 14.721C22.8856 14.5533 22.8702 14.3859 22.8391 14.2212C22.9438 14.1434 23.311 14.3557 23.6119 14.8008C23.9488 15.2991 24.3387 14.8801 24.0008 14.6161C23.7394 14.4115 23.4819 13.4354 23.4556 13.2507C23.4293 13.066 23.4303 12.3841 23.4824 12.2787C23.5983 12.0439 23.4824 11.385 23.1704 12.0158C22.8583 12.6465 22.4163 12.4885 22.4163 12.4885C22.1831 11.9902 21.5564 10.9793 20.4437 10.703C20.5985 10.3081 21.169 9.78219 21.998 9.44045C22.4269 9.266 22.7678 9.14834 23.1183 9.12634C23.2472 8.8905 23.2746 8.73242 23.1688 8.73242C22.5189 8.73242 21.5944 9.03426 21.2004 9.21791C20.8043 9.39235 20.3819 9.49785 19.9511 9.52998C19.5942 9.56422 19.2344 9.55098 18.8809 9.49059C18.3022 9.39186 17.7308 9.25307 17.1709 9.07518C16.5988 8.67973 16.5473 9.28391 16.6439 9.3632C17.0192 9.47572 17.3811 9.63015 17.7227 9.82363C18.0615 10.0794 18.2972 10.3792 18.495 10.6514C17.9558 10.8504 17.445 11.2443 17.2225 11.6234C16.9994 11.2515 16.4916 10.9128 16.1057 10.9128C15.1574 10.8105 14.6779 11.4546 14.6779 12.0557C14.6804 12.2 14.7141 12.342 14.7764 12.4718C14.8388 12.6016 14.9284 12.716 15.039 12.8072C15.039 12.8072 15.3784 12.9883 15.602 12.8072C15.6879 12.735 15.6126 12.6128 15.6126 12.5186C15.4052 12.2547 15.4791 11.8341 15.9247 11.8341C16.3702 11.8341 16.7344 12.2531 16.7344 12.7253C15.7734 13.2369 14.9945 14.1603 14.9945 15.1809C14.9945 16.2604 15.6434 17.216 16.9423 17.6877V22.9421C16.9423 22.9421 16.9928 23.5202 16.3965 22.7841C16.2448 22.5963 16.0713 22.5032 15.8766 22.2075C15.1756 21.0779 14.6486 20.0793 14.4751 20.0793C14.2414 20.0793 14.0341 20.1054 14.2935 20.5254C14.5316 20.9119 14.6573 21.3583 14.6562 21.8136C14.6562 22.2331 14.7432 22.7477 13.8515 23.4675C13.462 23.7832 13.8262 24.0983 14.163 23.7832C14.4999 23.468 14.8125 23.5202 14.9136 23.5202C15.2009 23.5202 15.8746 23.5714 16.5245 24.282C16.6337 24.321 16.7277 24.3943 16.7928 24.4912C16.8579 24.5882 16.8906 24.7036 16.8861 24.8207C16.8884 24.8979 16.8753 24.9749 16.8477 25.0469C16.82 25.119 16.7783 25.1847 16.7251 25.2401C16.6719 25.2956 16.6082 25.3397 16.5378 25.3698C16.4674 25.3999 16.3918 25.4154 16.3154 25.4154C16.2389 25.4154 16.1633 25.3999 16.0929 25.3698C16.0225 25.3397 15.9589 25.2956 15.9056 25.2401C15.8524 25.1847 15.8107 25.119 15.7831 25.0469C15.7554 24.9749 15.7423 24.8979 15.7446 24.8207C15.7446 24.6672 15.8098 24.6493 15.9004 24.5444C15.9004 24.5444 15.7962 24.2032 15.4072 24.4933C15.2656 24.5956 14.9394 24.9665 15.0436 25.2289C15.0694 25.8853 15.9196 26.602 17.1461 25.9646C17.3484 26.294 17.7227 26.7447 18.1071 26.9877C18.5046 27.2394 18.9082 27.2809 18.8743 27.3909C18.7835 27.6746 18.6332 27.9352 18.4337 28.1548C18.2341 28.3744 17.99 28.5478 17.7181 28.6632C17.1233 28.7619 16.6009 28.7476 16.524 28.2473C16.1351 27.4333 17.094 27.6436 16.8092 27.0926C16.5746 27.0128 16.264 27.0389 16.1371 27.0972C15.7254 27.3566 15.4578 27.7623 15.4578 28.2227C15.4578 29.0049 16.2372 29.6408 17.1982 29.6408C17.5894 29.6442 17.973 29.5322 18.3023 29.3185C18.6897 29.0576 19.1459 28.8514 19.3786 28.4836C19.638 28.8514 20.4771 29.3374 20.7032 29.4822C21.1184 29.7447 22.4163 29.9027 21.4821 29.272C19.984 28.2621 20.2101 27.2256 20.2101 27.2256C21.2216 27.1995 22.963 25.7804 23.2058 24.0364C24.6872 23.1591 25.2005 21.1434 24.3428 19.4409L24.3443 19.4388ZM16.9408 16.5335C16.2903 16.1923 16.0572 15.6951 16.0572 15.1937C16.0572 14.6745 16.4244 14.1552 16.9408 13.7761V16.5335ZM19.0427 11.4648V12.1994C18.4196 12.1483 17.9265 12.3314 17.9012 12.313C18.0191 11.9124 18.4247 11.5052 19.0427 11.4648ZM19.0427 13.0783V16.9285C19.0427 16.9285 18.4727 16.9796 18.1865 16.8748C18.1319 16.8568 18.0823 16.8261 18.0418 16.785C18.0012 16.7439 17.9709 16.6937 17.9533 16.6384V13.2799C18.3075 13.1708 18.6732 13.104 19.0427 13.0809V13.0783ZM19.0427 26.2848C18.3696 26.0751 18.0605 25.4305 18.0312 24.9905C18.3084 25.0417 18.6548 25.1752 19.0427 25.1481V26.2848ZM19.0427 23.9663C19.0427 24.1275 18.5294 24.0789 18.2118 23.8354C18.0874 23.7344 17.997 23.597 17.9528 23.442V19.3166H19.0427V23.9663ZM19.0696 18.4244H17.9786V17.8478C18.3398 17.9015 18.7045 17.9275 19.0696 17.9256V18.4244ZM20.2116 11.5917C20.7477 11.7288 21.1726 12.1089 21.3015 12.4874C21.251 12.4874 20.419 12.1979 20.2116 12.2506V11.5917ZM20.2075 13.0937C20.5196 13.0937 20.4716 13.196 20.9121 13.2236C21.1189 13.3003 21.5974 13.3592 21.7168 13.5387C21.866 13.7577 21.8913 14.2135 21.8731 14.7195C21.8028 16.0153 21.5878 16.532 21.1721 17.0835C21.1048 17.2779 20.8903 17.2324 20.6789 17.1884C20.5242 17.158 20.3684 17.1321 20.2116 17.1106L20.2075 13.0937ZM20.2384 26.2229V25.1486C20.9531 25.1072 21.558 24.9767 21.821 24.8345C21.7957 25.2279 21.0937 25.9431 20.2384 26.2255V26.2229ZM21.9788 23.6236C21.5625 23.8604 21.1978 24.017 20.8605 24.0436C20.2384 24.017 20.2116 24.1024 20.2116 23.9924V19.6859C20.2116 19.6859 22.1841 20.264 22.263 22.6531C22.2696 22.8608 22.3136 23.467 21.9788 23.6251V23.6236ZM23.1987 22.3666L23.1769 22.3093C23.1527 21.7655 22.9711 21.1276 22.6317 20.5075C22.0966 19.5299 21.2241 18.8428 20.7047 18.7119C20.7449 18.6623 20.7944 18.6213 20.8504 18.5911C21.4067 18.1343 22.6712 18.716 23.2665 19.799C23.8466 20.6032 23.7571 21.8581 23.1987 22.3666Z" fill="white"/>
</svg>
