<svg width="44" height="45" viewBox="0 0 44 45" fill="none" xmlns="http://www.w3.org/2000/svg">
<rect y="0.5" width="44" height="44" rx="22" fill="#1C77CF"/>
<path fill-rule="evenodd" clip-rule="evenodd" d="M16.1606 17.75L22 14.2489L27.8394 17.75H16.1606ZM10.7417 19.25L22 12.5L33.2584 19.25H29V26.5H30.5V28.5H32.5V32.5H11.5V28.5H13.5V26.5H15V19.25H10.7417ZM19.3077 26.5H16.0769L16.0769 19.25H19.3077V26.5ZM27.9231 26.5V19.25H24.6923V26.5H27.9231ZM23.6153 26.5H20.3846V19.25H23.6153V26.5ZM13 30H15V28H29V30H31V31H13V30Z" fill="white"/>
</svg>
