<svg width="388" height="60" viewBox="0 0 388 60" fill="none" xmlns="http://www.w3.org/2000/svg">
<g filter="url(#filter0_d_457_150817)">
<rect x="2" y="9" width="384" height="48" rx="4" fill="white"/>
<path d="M38.0512 24.6396H21.9472C20.7532 24.6396 19.7812 25.6116 19.7812 26.8056V38.7937C19.7812 39.9877 20.7532 40.9597 21.9472 40.9597H25.5172V41.8417C25.5172 42.2857 25.7092 42.6817 25.9912 42.9457C26.2792 43.2097 26.6452 43.3596 27.0412 43.3596C27.4132 43.3596 27.8092 43.2157 28.1092 42.9157L30.0653 40.9597H38.0512C39.2452 40.9597 40.2172 39.9877 40.2172 38.7937V26.8056C40.2172 25.6116 39.2452 24.6396 38.0512 24.6396ZM38.8973 38.7937C38.8973 39.2617 38.5192 39.6397 38.0512 39.6397H29.5192L27.1792 41.9797L27.0472 42.0397L26.9032 41.9797C26.8672 41.9437 26.8492 41.9137 26.8492 41.8357V39.6337H21.9472C21.4792 39.6337 21.1012 39.2557 21.1012 38.7877V26.8056C21.1012 26.3376 21.4792 25.9596 21.9472 25.9596H38.0512C38.5192 25.9596 38.8973 26.3376 38.8973 26.8056V38.7937Z" fill="#CA303D"/>
<path d="M25.3953 29.4541H34.8373C35.0353 29.4541 35.2033 29.6341 35.2033 29.8561C35.2033 30.0781 35.0413 30.2581 34.8373 30.2581H25.3953C25.1913 30.2581 25.0293 30.0781 25.0293 29.8561C25.0293 29.6341 25.1913 29.4541 25.3953 29.4541Z" fill="#CA303D"/>
<path d="M25.3953 32.3401H34.8373C35.0353 32.3401 35.2033 32.5201 35.2033 32.7421C35.2033 32.9641 35.0413 33.1441 34.8373 33.1441H25.3953C25.1913 33.1441 25.0293 32.9641 25.0293 32.7421C25.0293 32.5201 25.1913 32.3401 25.3953 32.3401Z" fill="#CA303D"/>
<path d="M25.3953 35.2321H34.8373C35.0353 35.2321 35.2033 35.4121 35.2033 35.6341C35.2033 35.8561 35.0413 36.0361 34.8373 36.0361H25.3953C25.1913 36.0361 25.0293 35.8561 25.0293 35.6341C25.0293 35.4121 25.1913 35.2321 25.3953 35.2321Z" fill="#CA303D"/>
<path d="M52.632 33.888V32.39H54.69C55.0073 32.39 55.2873 32.32 55.53 32.18C55.782 32.04 55.9827 31.8487 56.132 31.606C56.2907 31.3633 56.37 31.088 56.37 30.78C56.37 30.3133 56.202 29.9307 55.866 29.632C55.53 29.3333 55.096 29.184 54.564 29.184H52.632V27.7L54.62 27.686C55.292 27.6767 55.8847 27.8073 56.398 28.078C56.9113 28.3393 57.3127 28.7033 57.602 29.17C57.8913 29.6367 58.036 30.1733 58.036 30.78C58.036 31.3867 57.882 31.9233 57.574 32.39C57.2753 32.8567 56.86 33.2253 56.328 33.496C55.796 33.7573 55.194 33.888 54.522 33.888H52.632ZM51.162 37.5V27.7H52.786V37.5H51.162ZM56.594 37.5L54.298 33.524L55.558 32.656L58.428 37.5H56.594ZM63.1081 37.668C62.4267 37.668 61.8201 37.514 61.2881 37.206C60.7561 36.8887 60.3407 36.4547 60.0421 35.904C59.7434 35.3533 59.5941 34.7187 59.5941 34C59.5941 33.2813 59.7481 32.6467 60.0561 32.096C60.3641 31.5453 60.7841 31.116 61.3161 30.808C61.8481 30.4907 62.4641 30.332 63.1641 30.332C63.7801 30.332 64.3401 30.4953 64.8441 30.822C65.3481 31.1393 65.7447 31.6013 66.0341 32.208C66.3327 32.8147 66.4821 33.538 66.4821 34.378H64.9001C64.9094 33.7713 64.8394 33.272 64.6901 32.88C64.5501 32.488 64.3447 32.1987 64.0741 32.012C63.8034 31.816 63.4814 31.718 63.1081 31.718C62.7161 31.718 62.3801 31.8067 62.1001 31.984C61.8294 32.1613 61.6194 32.4227 61.4701 32.768C61.3207 33.104 61.2461 33.5287 61.2461 34.042C61.2461 34.4993 61.3347 34.8913 61.5121 35.218C61.6894 35.5447 61.9274 35.7967 62.2261 35.974C62.5341 36.142 62.8747 36.226 63.2481 36.226C63.6587 36.226 63.9994 36.1327 64.2701 35.946C64.5407 35.75 64.7507 35.5027 64.9001 35.204L66.3421 35.82C66.1461 36.1933 65.8987 36.52 65.6001 36.8C65.3014 37.08 64.9421 37.2947 64.5221 37.444C64.1021 37.5933 63.6307 37.668 63.1081 37.668ZM60.6161 34.378L60.6301 33.132H65.6701V34.378H60.6161ZM69.1994 29.198C68.9381 29.198 68.7141 29.1047 68.5274 28.918C68.3501 28.7313 68.2614 28.512 68.2614 28.26C68.2614 27.9987 68.3501 27.7793 68.5274 27.602C68.7141 27.4153 68.9381 27.322 69.1994 27.322C69.4514 27.322 69.6707 27.4153 69.8574 27.602C70.0441 27.7793 70.1374 27.9987 70.1374 28.26C70.1374 28.512 70.0441 28.7313 69.8574 28.918C69.6707 29.1047 69.4514 29.198 69.1994 29.198ZM67.6454 40.51C67.1881 40.51 66.7027 40.3747 66.1894 40.104L66.8194 38.802C66.9874 38.886 67.1414 38.9467 67.2814 38.984C67.4214 39.0307 67.5381 39.054 67.6314 39.054C68.1541 39.054 68.4154 38.718 68.4154 38.046V30.5H69.9694V38.13C69.9694 38.8953 69.7687 39.4833 69.3674 39.894C68.9754 40.3047 68.4014 40.51 67.6454 40.51ZM75.1606 37.668C74.4792 37.668 73.8726 37.514 73.3406 37.206C72.8086 36.8887 72.3932 36.4547 72.0946 35.904C71.7959 35.3533 71.6466 34.7187 71.6466 34C71.6466 33.2813 71.8006 32.6467 72.1086 32.096C72.4166 31.5453 72.8366 31.116 73.3686 30.808C73.9006 30.4907 74.5166 30.332 75.2166 30.332C75.8326 30.332 76.3926 30.4953 76.8966 30.822C77.4006 31.1393 77.7972 31.6013 78.0866 32.208C78.3852 32.8147 78.5346 33.538 78.5346 34.378H76.9526C76.9619 33.7713 76.8919 33.272 76.7426 32.88C76.6026 32.488 76.3972 32.1987 76.1266 32.012C75.8559 31.816 75.5339 31.718 75.1606 31.718C74.7686 31.718 74.4326 31.8067 74.1526 31.984C73.8819 32.1613 73.6719 32.4227 73.5226 32.768C73.3732 33.104 73.2986 33.5287 73.2986 34.042C73.2986 34.4993 73.3872 34.8913 73.5646 35.218C73.7419 35.5447 73.9799 35.7967 74.2786 35.974C74.5866 36.142 74.9272 36.226 75.3006 36.226C75.7112 36.226 76.0519 36.1327 76.3226 35.946C76.5932 35.75 76.8032 35.5027 76.9526 35.204L78.3946 35.82C78.1986 36.1933 77.9512 36.52 77.6526 36.8C77.3539 37.08 76.9946 37.2947 76.5746 37.444C76.1546 37.5933 75.6832 37.668 75.1606 37.668ZM72.6686 34.378L72.6826 33.132H77.7226V34.378H72.6686ZM83.2119 37.668C82.4932 37.668 81.8586 37.514 81.3079 37.206C80.7572 36.8887 80.3232 36.4547 80.0059 35.904C79.6979 35.3533 79.5439 34.7187 79.5439 34C79.5439 33.2813 79.6979 32.6467 80.0059 32.096C80.3232 31.5453 80.7526 31.116 81.2939 30.808C81.8446 30.4907 82.4746 30.332 83.1839 30.332C83.8746 30.332 84.4999 30.5 85.0599 30.836C85.6199 31.1627 86.0352 31.634 86.3059 32.25L84.8499 32.81C84.7006 32.502 84.4719 32.2547 84.1639 32.068C83.8559 31.8813 83.5059 31.788 83.1139 31.788C82.7312 31.788 82.3906 31.886 82.0919 32.082C81.7932 32.2687 81.5599 32.53 81.3919 32.866C81.2239 33.1927 81.1399 33.5707 81.1399 34C81.1399 34.4293 81.2239 34.812 81.3919 35.148C81.5692 35.4747 81.8072 35.736 82.1059 35.932C82.4139 36.1187 82.7592 36.212 83.1419 36.212C83.5339 36.212 83.8839 36.114 84.1919 35.918C84.4999 35.7127 84.7286 35.4373 84.8779 35.092L86.3339 35.652C86.0632 36.2867 85.6479 36.7813 85.0879 37.136C84.5372 37.4907 83.9119 37.668 83.2119 37.668ZM90.5971 37.668C89.8598 37.668 89.2951 37.486 88.9031 37.122C88.5205 36.7487 88.3291 36.2167 88.3291 35.526V28.316H89.8831V35.232C89.8831 35.5587 89.9578 35.806 90.1071 35.974C90.2658 36.142 90.4945 36.226 90.7931 36.226C90.8865 36.226 90.9891 36.2073 91.1011 36.17C91.2131 36.1327 91.3391 36.0627 91.4791 35.96L92.0531 37.15C91.8105 37.318 91.5678 37.444 91.3251 37.528C91.0825 37.6213 90.8398 37.668 90.5971 37.668ZM87.1671 31.844V30.5H91.7731V31.844H87.1671ZM93.4673 37.5L93.4813 30.5H95.0353L95.0213 37.5H93.4673ZM94.2513 29.17C93.9993 29.17 93.7799 29.0813 93.5933 28.904C93.4159 28.7173 93.3273 28.498 93.3273 28.246C93.3273 27.994 93.4159 27.7793 93.5933 27.602C93.7799 27.4247 93.9993 27.336 94.2513 27.336C94.5033 27.336 94.7179 27.4247 94.8953 27.602C95.0819 27.7793 95.1753 27.994 95.1753 28.246C95.1753 28.498 95.0819 28.7173 94.8953 28.904C94.7179 29.0813 94.5033 29.17 94.2513 29.17ZM100.307 37.668C99.5979 37.668 98.9679 37.514 98.4173 37.206C97.8759 36.8887 97.4513 36.4547 97.1433 35.904C96.8353 35.3533 96.6813 34.7187 96.6813 34C96.6813 33.2813 96.8306 32.6467 97.1293 32.096C97.4373 31.5453 97.8619 31.116 98.4033 30.808C98.9539 30.4907 99.5793 30.332 100.279 30.332C100.989 30.332 101.614 30.4907 102.155 30.808C102.697 31.116 103.121 31.5453 103.429 32.096C103.737 32.6467 103.891 33.2813 103.891 34C103.891 34.7187 103.737 35.3533 103.429 35.904C103.121 36.4547 102.697 36.8887 102.155 37.206C101.623 37.514 101.007 37.668 100.307 37.668ZM100.307 36.156C100.681 36.156 101.007 36.0673 101.287 35.89C101.577 35.7033 101.801 35.4467 101.959 35.12C102.127 34.7933 102.211 34.42 102.211 34C102.211 33.58 102.127 33.2067 101.959 32.88C101.801 32.5533 101.572 32.3013 101.273 32.124C100.984 31.9373 100.653 31.844 100.279 31.844C99.9059 31.844 99.5746 31.9373 99.2853 32.124C98.9959 32.3013 98.7673 32.5533 98.5993 32.88C98.4406 33.2067 98.3613 33.58 98.3613 34C98.3613 34.42 98.4406 34.7933 98.5993 35.12C98.7673 35.4467 98.9959 35.7033 99.2853 35.89C99.5839 36.0673 99.9246 36.156 100.307 36.156ZM105.435 37.5V30.5H106.905L107.003 31.788V37.5H105.435ZM110.181 37.5V33.916L111.749 33.496V37.5H110.181ZM110.181 33.916C110.181 33.356 110.116 32.9267 109.985 32.628C109.864 32.32 109.687 32.1053 109.453 31.984C109.229 31.8627 108.963 31.802 108.655 31.802C108.133 31.7927 107.727 31.9653 107.437 32.32C107.148 32.6747 107.003 33.1833 107.003 33.846H106.415C106.415 33.1087 106.523 32.4787 106.737 31.956C106.952 31.424 107.26 31.0227 107.661 30.752C108.063 30.472 108.539 30.332 109.089 30.332C109.939 30.332 110.592 30.5933 111.049 31.116C111.516 31.6293 111.749 32.4227 111.749 33.496L110.181 33.916ZM124.137 37.5L117.627 28.596L118.929 27.7L125.425 36.576L124.137 37.5ZM117.249 37.5V27.7H118.929L118.873 29.1V37.5H117.249ZM124.137 37.5V27.7H125.761V37.5H124.137ZM131.235 37.668C130.525 37.668 129.895 37.514 129.345 37.206C128.803 36.8887 128.379 36.4547 128.071 35.904C127.763 35.3533 127.609 34.7187 127.609 34C127.609 33.2813 127.758 32.6467 128.057 32.096C128.365 31.5453 128.789 31.116 129.331 30.808C129.881 30.4907 130.507 30.332 131.207 30.332C131.916 30.332 132.541 30.4907 133.083 30.808C133.624 31.116 134.049 31.5453 134.357 32.096C134.665 32.6467 134.819 33.2813 134.819 34C134.819 34.7187 134.665 35.3533 134.357 35.904C134.049 36.4547 133.624 36.8887 133.083 37.206C132.551 37.514 131.935 37.668 131.235 37.668ZM131.235 36.156C131.608 36.156 131.935 36.0673 132.215 35.89C132.504 35.7033 132.728 35.4467 132.887 35.12C133.055 34.7933 133.139 34.42 133.139 34C133.139 33.58 133.055 33.2067 132.887 32.88C132.728 32.5533 132.499 32.3013 132.201 32.124C131.911 31.9373 131.58 31.844 131.207 31.844C130.833 31.844 130.502 31.9373 130.213 32.124C129.923 32.3013 129.695 32.5533 129.527 32.88C129.368 33.2067 129.289 33.58 129.289 34C129.289 34.42 129.368 34.7933 129.527 35.12C129.695 35.4467 129.923 35.7033 130.213 35.89C130.511 36.0673 130.852 36.156 131.235 36.156ZM139.289 37.668C138.551 37.668 137.987 37.486 137.595 37.122C137.212 36.7487 137.021 36.2167 137.021 35.526V28.316H138.575V35.232C138.575 35.5587 138.649 35.806 138.799 35.974C138.957 36.142 139.186 36.226 139.485 36.226C139.578 36.226 139.681 36.2073 139.793 36.17C139.905 36.1327 140.031 36.0627 140.171 35.96L140.745 37.15C140.502 37.318 140.259 37.444 140.017 37.528C139.774 37.6213 139.531 37.668 139.289 37.668ZM135.859 31.844V30.5H140.465V31.844H135.859ZM145.267 37.668C144.585 37.668 143.979 37.514 143.447 37.206C142.915 36.8887 142.499 36.4547 142.201 35.904C141.902 35.3533 141.753 34.7187 141.753 34C141.753 33.2813 141.907 32.6467 142.215 32.096C142.523 31.5453 142.943 31.116 143.475 30.808C144.007 30.4907 144.623 30.332 145.323 30.332C145.939 30.332 146.499 30.4953 147.003 30.822C147.507 31.1393 147.903 31.6013 148.193 32.208C148.491 32.8147 148.641 33.538 148.641 34.378H147.059C147.068 33.7713 146.998 33.272 146.849 32.88C146.709 32.488 146.503 32.1987 146.233 32.012C145.962 31.816 145.64 31.718 145.267 31.718C144.875 31.718 144.539 31.8067 144.259 31.984C143.988 32.1613 143.778 32.4227 143.629 32.768C143.479 33.104 143.405 33.5287 143.405 34.042C143.405 34.4993 143.493 34.8913 143.671 35.218C143.848 35.5447 144.086 35.7967 144.385 35.974C144.693 36.142 145.033 36.226 145.407 36.226C145.817 36.226 146.158 36.1327 146.429 35.946C146.699 35.75 146.909 35.5027 147.059 35.204L148.501 35.82C148.305 36.1933 148.057 36.52 147.759 36.8C147.46 37.08 147.101 37.2947 146.681 37.444C146.261 37.5933 145.789 37.668 145.267 37.668ZM142.775 34.378L142.789 33.132H147.829V34.378H142.775Z" fill="#CA303D"/>
<path d="M366.625 26.0821L364.66 24.0901C364.353 23.7781 363.95 23.6221 363.548 23.6221C363.145 23.6221 362.743 23.7781 362.435 24.0901L348.588 38.1361C348.475 38.2501 348.41 38.4061 348.41 38.5681L348.422 41.8141C348.422 42.2161 348.742 42.5401 349.138 42.5401L352.34 42.5521C352.499 42.5521 352.653 42.4861 352.766 42.3721L366.625 28.3321C367.241 27.7081 367.241 26.7001 366.625 26.0821ZM352.056 41.2381H349.718V38.8621L360.885 27.5341L363.228 29.9101L352.056 41.2381ZM365.702 27.3961L363.891 29.2321L361.548 26.8561L363.359 25.0201C363.424 24.9541 363.495 24.9421 363.548 24.9421C363.601 24.9421 363.672 24.9541 363.737 25.0201L365.702 27.0121C365.767 27.0781 365.779 27.1501 365.779 27.2041C365.779 27.2581 365.767 27.3301 365.702 27.3961Z" fill="#2E2F37"/>
<path d="M92.2794 1.74885C92.6728 1.34001 93.3272 1.34001 93.7206 1.74885L104.361 12.8066C104.972 13.4419 104.522 14.5 103.64 14.5H82.3596C81.478 14.5 81.0277 13.4419 81.6391 12.8066L92.2794 1.74885Z" fill="white"/>
</g>
<defs>
<filter id="filter0_d_457_150817" x="0" y="0.442383" width="388" height="59.5576" filterUnits="userSpaceOnUse" color-interpolation-filters="sRGB">
<feFlood flood-opacity="0" result="BackgroundImageFix"/>
<feColorMatrix in="SourceAlpha" type="matrix" values="0 0 0 0 0 0 0 0 0 0 0 0 0 0 0 0 0 0 127 0" result="hardAlpha"/>
<feOffset dy="1"/>
<feGaussianBlur stdDeviation="1"/>
<feColorMatrix type="matrix" values="0 0 0 0 0.145098 0 0 0 0 0.145098 0 0 0 0 0.152941 0 0 0 0.06 0"/>
<feBlend mode="normal" in2="BackgroundImageFix" result="effect1_dropShadow_457_150817"/>
<feBlend mode="normal" in="SourceGraphic" in2="effect1_dropShadow_457_150817" result="shape"/>
</filter>
</defs>
</svg>
