<svg width="44" height="45" viewBox="0 0 44 45" fill="none" xmlns="http://www.w3.org/2000/svg">
<rect y="0.5" width="44" height="44" rx="22" fill="#1C77CF"/>
<path d="M32.8601 22.4996C32.8601 16.4996 28.0001 11.6396 22.0001 11.6396C19.0061 11.6396 16.2821 12.8576 14.3201 14.8196C12.3581 16.7816 11.1401 19.5056 11.1401 22.4996C11.1401 24.8456 11.8901 27.0116 13.1561 28.7876V28.7996L13.4681 29.2076C13.4681 29.2076 13.4681 29.2136 13.4741 29.2196C13.5821 29.3576 13.6961 29.4896 13.8101 29.6216C13.8821 29.6996 13.9541 29.7776 14.0261 29.8556C14.2001 30.0476 14.3801 30.2276 14.5721 30.4076C14.6621 30.4916 14.7521 30.5756 14.8421 30.6536C15.0041 30.7976 15.1721 30.9356 15.3461 31.0676C15.4721 31.1696 15.6041 31.2656 15.7361 31.3556C15.8501 31.4336 15.9641 31.5176 16.0781 31.5896C16.2821 31.7216 16.4861 31.8476 16.6961 31.9616C16.7981 32.0216 16.9001 32.0756 17.0081 32.1296C17.2241 32.2436 17.4401 32.3456 17.6621 32.4476C17.7521 32.4836 17.8361 32.5196 17.9261 32.5556C18.1541 32.6516 18.3881 32.7356 18.6281 32.8136C18.7001 32.8376 18.7661 32.8616 18.8381 32.8856C19.1201 32.9696 19.4081 33.0416 19.7021 33.1076C19.7741 33.1256 19.8401 33.1376 19.9121 33.1496C20.2121 33.2096 20.5181 33.2576 20.8301 33.2876C20.8841 33.2876 20.9381 33.2996 20.9921 33.2996C21.3221 33.3296 21.6581 33.3536 22.0001 33.3536C22.3421 33.3536 22.6781 33.3356 23.0081 33.2996C23.0621 33.2996 23.1161 33.2936 23.1701 33.2876C23.4821 33.2516 23.7881 33.2036 24.0881 33.1496C24.1601 33.1376 24.2261 33.1196 24.2981 33.1076C24.5921 33.0416 24.8801 32.9696 25.1621 32.8856C25.2341 32.8616 25.3001 32.8376 25.3721 32.8136C25.6121 32.7356 25.8401 32.6516 26.0741 32.5556C26.1641 32.5196 26.2481 32.4836 26.3381 32.4476C26.5601 32.3516 26.7821 32.2436 26.9981 32.1296C27.1001 32.0756 27.2081 32.0216 27.3101 31.9616C27.5201 31.8416 27.7241 31.7156 27.9281 31.5836C28.0421 31.5056 28.1561 31.4276 28.2701 31.3496C28.4021 31.2536 28.5281 31.1576 28.6601 31.0616C28.8341 30.9296 29.0021 30.7916 29.1641 30.6476C29.2541 30.5636 29.3441 30.4856 29.4341 30.4016C29.6201 30.2276 29.8001 30.0416 29.9801 29.8496C30.0521 29.7716 30.1241 29.6936 30.1961 29.6096C30.3101 29.4776 30.4241 29.3456 30.5321 29.2076C30.5321 29.2076 30.5321 29.2016 30.5381 29.1956L30.8621 28.7876V28.7756C32.1161 26.9996 32.8721 24.8336 32.8721 22.4876L32.8601 22.4996ZM27.0821 30.5636C26.8361 30.7196 26.5781 30.8636 26.3201 31.0016C26.2421 31.0376 26.1641 31.0736 26.0921 31.1156C25.8701 31.2236 25.6421 31.3196 25.4081 31.4096C25.3061 31.4456 25.2101 31.4876 25.1081 31.5176C24.8861 31.5956 24.6641 31.6616 24.4361 31.7216C24.3221 31.7516 24.2141 31.7816 24.1001 31.8056C23.8661 31.8596 23.6261 31.8956 23.3801 31.9316C23.2721 31.9496 23.1701 31.9676 23.0681 31.9796C22.7201 32.0156 22.3661 32.0396 22.0121 32.0396C21.6521 32.0396 21.3041 32.0156 20.9561 31.9796C20.8481 31.9676 20.7461 31.9496 20.6441 31.9316C20.4041 31.8956 20.1641 31.8596 19.9241 31.8056C19.8101 31.7816 19.7021 31.7516 19.5881 31.7216C19.3601 31.6616 19.1381 31.5956 18.9161 31.5176C18.8141 31.4816 18.7121 31.4456 18.6161 31.4096C18.3821 31.3196 18.1541 31.2236 17.9321 31.1156C17.8541 31.0796 17.7761 31.0436 17.7041 31.0016C17.4401 30.8696 17.1881 30.7256 16.9421 30.5636C16.9121 30.5456 16.8761 30.5276 16.8461 30.5036C16.1141 30.0236 15.4541 29.4416 14.8781 28.7876C15.0101 28.6376 15.1421 28.4936 15.2801 28.3556C17.0081 26.6276 19.3901 25.5596 22.0241 25.5596C24.8741 25.5596 27.4061 26.8196 29.1581 28.7996C28.5821 29.4476 27.9341 30.0296 27.2021 30.5036C27.1721 30.5216 27.1361 30.5396 27.1061 30.5636H27.0821ZM19.4981 22.6016C18.8561 21.9596 18.4601 21.0776 18.4601 20.0996C18.4601 19.1216 18.8561 18.2396 19.4981 17.5976C20.1401 16.9556 21.0221 16.5596 22.0001 16.5596C22.9781 16.5596 23.8601 16.9556 24.5021 17.5976C25.1441 18.2396 25.5401 19.1216 25.5401 20.0996C25.5401 21.0776 25.1441 21.9596 24.5021 22.6016C23.8601 23.2436 22.9781 23.6396 22.0001 23.6396C21.0221 23.6396 20.1401 23.2436 19.4981 22.6016ZM15.2561 15.7556C16.9841 14.0276 19.3661 12.9596 22.0001 12.9596C24.6341 12.9596 27.0161 14.0276 28.7441 15.7556C30.4721 17.4836 31.5401 19.8656 31.5401 22.4996C31.5401 24.4376 30.9581 26.2376 29.9681 27.7376C28.4501 26.0936 26.4281 24.9116 24.1421 24.4556C25.7501 23.6636 26.8601 22.0136 26.8601 20.0996C26.8601 17.4176 24.6821 15.2396 22.0001 15.2396C20.6621 15.2396 19.4381 15.7856 18.5621 16.6616C17.6861 17.5376 17.1401 18.7556 17.1401 20.0996C17.1401 22.0136 18.2441 23.6576 19.8521 24.4556C17.7161 24.8876 15.8021 25.9376 14.3201 27.4196C14.2181 27.5216 14.1221 27.6296 14.0261 27.7316C13.0361 26.2256 12.4601 24.4316 12.4601 22.4996C12.4601 19.8656 13.5281 17.4836 15.2561 15.7556Z" fill="white"/>
</svg>
