<svg width="24" height="24" viewBox="0 0 24 24" fill="none" xmlns="http://www.w3.org/2000/svg">
<path fill-rule="evenodd" clip-rule="evenodd" d="M5.29203 5.22883C5.59714 4.92372 6.09183 4.92372 6.39694 5.22883L18.8344 17.6663C19.1395 17.9714 19.1395 18.4661 18.8344 18.7712C18.5293 19.0763 18.0346 19.0763 17.7295 18.7712L5.29203 6.33374C4.98692 6.02863 4.98692 5.53395 5.29203 5.22883Z" fill="#1E2347"/>
<path fill-rule="evenodd" clip-rule="evenodd" d="M5.22883 18.7712C4.92372 18.4661 4.92372 17.9714 5.22883 17.6663L17.6663 5.22883C17.9714 4.92372 18.4661 4.92372 18.7712 5.22883C19.0763 5.53395 19.0763 6.02863 18.7712 6.33374L6.33374 18.7712C6.02863 19.0763 5.53395 19.0763 5.22883 18.7712Z" fill="#1E2347"/>
</svg>
