<svg width="25" height="24" viewBox="0 0 25 24" fill="none" xmlns="http://www.w3.org/2000/svg">
<path fill-rule="evenodd" clip-rule="evenodd" d="M5.79203 5.22883C6.09714 4.92372 6.59183 4.92372 6.89694 5.22883L19.3344 17.6663C19.6395 17.9714 19.6395 18.4661 19.3344 18.7712C19.0293 19.0763 18.5346 19.0763 18.2295 18.7712L5.79203 6.33374C5.48692 6.02863 5.48692 5.53395 5.79203 5.22883Z" fill="white"/>
<path fill-rule="evenodd" clip-rule="evenodd" d="M5.72883 18.7712C5.42372 18.4661 5.42372 17.9714 5.72883 17.6663L18.1663 5.22883C18.4714 4.92372 18.9661 4.92372 19.2712 5.22883C19.5763 5.53395 19.5763 6.02863 19.2712 6.33374L6.83374 18.7712C6.52863 19.0763 6.03395 19.0763 5.72883 18.7712Z" fill="white"/>
</svg>
