<svg width="24" height="25" viewBox="0 0 24 25" fill="none" xmlns="http://www.w3.org/2000/svg">
<path fill-rule="evenodd" clip-rule="evenodd" d="M12 21.5C16.9706 21.5 21 17.4706 21 12.5C21 7.52944 16.9706 3.5 12 3.5C7.02944 3.5 3 7.52944 3 12.5C3 17.4706 7.02944 21.5 12 21.5Z" fill="black" fill-opacity="0.5"/>
<path fill-rule="evenodd" clip-rule="evenodd" d="M8.16518 15.3257C7.94494 15.5444 7.94494 15.8989 8.16518 16.1175C8.38541 16.3362 8.74248 16.3362 8.96271 16.1175L11.89 13.2112L15.0373 16.336C15.2575 16.5547 15.6146 16.5547 15.8348 16.336C16.0551 16.1173 16.0551 15.7628 15.8348 15.5442L12.6875 12.4194L15.6724 9.45583C15.8926 9.23717 15.8926 8.88265 15.6724 8.66399C15.4522 8.44533 15.0951 8.44533 14.8749 8.66399L11.89 11.6275L9.12513 8.88247C8.90489 8.66381 8.54782 8.66381 8.32759 8.88247C8.10736 9.10113 8.10736 9.45564 8.32759 9.6743L11.0924 12.4194L8.16518 15.3257Z" fill="white"/>
</svg>
