<svg width="24" height="24" viewBox="0 0 24 24" fill="none" xmlns="http://www.w3.org/2000/svg">
<path d="M20.0666 3.85819H15.2966C15.1586 2.80819 14.2646 1.99219 13.1726 1.99219H10.4546C9.3026 1.99219 8.3426 2.79019 8.0786 3.85819H3.2666V5.17819H4.8026L5.2646 20.9942C5.3066 21.6122 5.8226 22.0922 6.4406 22.0922H16.8866C17.5046 22.0922 18.0206 21.6122 18.0626 20.9942L18.5246 5.17819H20.0606V3.85819H20.0666ZM10.4606 3.31219H13.1786C13.5386 3.31219 13.8386 3.54019 13.9586 3.85819H9.5006C9.6986 3.53419 10.0526 3.31219 10.4666 3.31219H10.4606ZM16.7486 20.7782H6.5846L6.1286 5.22019H17.2046L16.7486 20.7782Z" fill="#1E2347"/>
<path d="M12.1465 7.69824H11.1865V17.8982H12.1465V7.69824Z" fill="#1E2347"/>
<path d="M14.5225 7.69824H13.5625V17.8982H14.5225V7.69824Z" fill="#1E2347"/>
<path d="M9.77055 7.69824H8.81055V17.8982H9.77055V7.69824Z" fill="#1E2347"/>
</svg>
