<svg width="32" height="32" viewBox="0 0 32 32" fill="none" xmlns="http://www.w3.org/2000/svg">
<path d="M27.4345 5.33398H4.9225C4.32344 5.3361 3.74964 5.57556 3.32678 5.99992C2.90393 6.42427 2.6665 6.99892 2.6665 7.59798V24.398C2.6665 24.9971 2.90393 25.5717 3.32678 25.9961C3.74964 26.4204 4.32344 26.6599 4.9225 26.662H27.4345C28.0336 26.6599 28.6074 26.4204 29.0302 25.9961C29.4531 25.5717 29.6905 24.9971 29.6905 24.398V7.59798C29.6905 6.99892 29.4531 6.42427 29.0302 5.99992C28.6074 5.57556 28.0336 5.3361 27.4345 5.33398ZM27.3785 7.09398L17.6585 16.798C17.4645 16.9929 17.2339 17.1476 16.9799 17.2532C16.7259 17.3588 16.4536 17.4131 16.1785 17.4131C15.9035 17.4131 15.6311 17.3588 15.3771 17.2532C15.1231 17.1476 14.8925 16.9929 14.6985 16.798L4.9785 7.09398H27.3785ZM27.4425 24.902H4.9225C4.79023 24.8999 4.66408 24.8459 4.57128 24.7516C4.47849 24.6573 4.42649 24.5303 4.4265 24.398V8.34998L13.7785 17.718C14.0913 18.0373 14.4648 18.2909 14.8769 18.4641C15.289 18.6373 15.7315 18.7265 16.1785 18.7265C16.6255 18.7265 17.068 18.6373 17.4801 18.4641C17.8923 18.2909 18.2657 18.0373 18.5785 17.718L27.9305 8.34998V24.398C27.9305 24.5303 27.8785 24.6573 27.7857 24.7516C27.6929 24.8459 27.5668 24.8999 27.4345 24.902H27.4425Z" fill="#1E2347"/>
</svg>
