<svg width="56" height="56" viewBox="0 0 56 56" fill="none" xmlns="http://www.w3.org/2000/svg">
<rect width="56" height="56" rx="28" fill="#CA303D"/>
<path fill-rule="evenodd" clip-rule="evenodd" d="M21.292 21.2288C21.5971 20.9237 22.0918 20.9237 22.3969 21.2288L34.8344 33.6663C35.1395 33.9714 35.1395 34.4661 34.8344 34.7712C34.5293 35.0763 34.0346 35.0763 33.7295 34.7712L21.292 22.3337C20.9869 22.0286 20.9869 21.5339 21.292 21.2288Z" fill="white"/>
<path fill-rule="evenodd" clip-rule="evenodd" d="M21.2288 34.7712C20.9237 34.4661 20.9237 33.9714 21.2288 33.6663L33.6663 21.2288C33.9714 20.9237 34.4661 20.9237 34.7712 21.2288C35.0763 21.5339 35.0763 22.0286 34.7712 22.3337L22.3337 34.7712C22.0286 35.0763 21.5339 35.0763 21.2288 34.7712Z" fill="white"/>
</svg>
