<svg width="204" height="84" viewBox="0 0 204 84" fill="none" xmlns="http://www.w3.org/2000/svg">
<rect width="204" height="84" rx="42" fill="white"/>
<circle cx="42" cy="42" r="27.5" fill="#E8F2FA"/>
<path fill-rule="evenodd" clip-rule="evenodd" d="M19.8125 58.25C24.8169 51.4285 32.8913 47 42.0001 47C51.1089 47 59.1833 51.4285 64.1877 58.25C59.1833 65.0715 51.1089 69.5 42.0001 69.5C32.8913 69.5 24.8169 65.0715 19.8125 58.25Z" fill="#1C77CF"/>
<circle cx="42" cy="37" r="12.5" fill="white"/>
<path fill-rule="evenodd" clip-rule="evenodd" d="M32 44.5012C33.5698 42.4118 34.5 39.8145 34.5 37C34.5 34.1854 33.5698 31.5881 32 29.4988C30.4302 31.5881 29.5 34.1855 29.5 37C29.5 39.8146 30.4302 42.4119 32 44.5012Z" fill="#7E5B5B"/>
<path fill-rule="evenodd" clip-rule="evenodd" d="M32 44.5012C33.5698 42.4118 34.5 39.8145 34.5 37C34.5 34.1854 33.5698 31.5881 32 29.4988C30.4302 31.5881 29.5 34.1855 29.5 37C29.5 39.8146 30.4302 42.4119 32 44.5012Z" fill="#7E5B5B"/>
<path fill-rule="evenodd" clip-rule="evenodd" d="M52 44.5013C53.5698 42.4119 54.5 39.8146 54.5 37.0001C54.5 34.1855 53.5698 31.5882 52 29.4988C50.4302 31.5882 49.5 34.1855 49.5 37C49.5 39.8146 50.4302 42.4119 52 44.5013Z" fill="#7E5B5B"/>
<path fill-rule="evenodd" clip-rule="evenodd" d="M52 44.5013C53.5698 42.4119 54.5 39.8146 54.5 37.0001C54.5 34.1855 53.5698 31.5882 52 29.4988C50.4302 31.5882 49.5 34.1855 49.5 37C49.5 39.8146 50.4302 42.4119 52 44.5013Z" fill="#7E5B5B"/>
<path fill-rule="evenodd" clip-rule="evenodd" d="M31.1409 30.8046C33.2943 27.0382 37.3507 24.5 42 24.5C47.9032 24.5 52.8506 28.592 54.1605 34.0943C51.3921 35.9305 48.071 37 44.5001 37C39.1446 37 34.3509 34.5943 31.1409 30.8046Z" fill="#7E5B5B"/>
<path fill-rule="evenodd" clip-rule="evenodd" d="M31.1409 30.8046C33.2943 27.0382 37.3507 24.5 42 24.5C47.9032 24.5 52.8506 28.592 54.1605 34.0943C51.3921 35.9305 48.071 37 44.5001 37C39.1446 37 34.3509 34.5943 31.1409 30.8046Z" fill="#7E5B5B"/>
<path d="M107.333 32.4187L116.829 41.9227L107.333 51.4267L108.573 52.6667L119.325 41.9227L108.573 31.1787L107.333 32.4187Z" fill="#ABAFBF"/>
<path d="M95.3335 32.4187L104.829 41.9227L95.3335 51.4267L96.5735 52.6667L107.325 41.9227L96.5735 31.1787L95.3335 32.4187Z" fill="#C8CAD5"/>
<path d="M84 32.4187L93.496 41.9227L84 51.4267L85.24 52.6667L95.992 41.9227L85.24 31.1787L84 32.4187Z" fill="#E5E6EB"/>
<circle cx="162" cy="42" r="27.5" fill="#FAE9B5"/>
<path fill-rule="evenodd" clip-rule="evenodd" d="M139.812 58.25C144.817 51.4285 152.891 47 162 47C171.109 47 179.183 51.4285 184.188 58.25C179.183 65.0715 171.109 69.5 162 69.5C152.891 69.5 144.817 65.0715 139.812 58.25Z" fill="#CA303D"/>
<circle cx="162" cy="37" r="12.5" fill="white"/>
<path fill-rule="evenodd" clip-rule="evenodd" d="M152 44.5012C153.57 42.4118 154.5 39.8145 154.5 36.9999C154.5 34.1854 153.57 31.5881 152 29.4987C150.43 31.5881 149.5 34.1854 149.5 37C149.5 39.8145 150.43 42.4118 152 44.5012Z" fill="#7E5B5B"/>
<path fill-rule="evenodd" clip-rule="evenodd" d="M152 44.5012C153.57 42.4118 154.5 39.8145 154.5 36.9999C154.5 34.1854 153.57 31.5881 152 29.4987C150.43 31.5881 149.5 34.1854 149.5 37C149.5 39.8145 150.43 42.4118 152 44.5012Z" fill="#7E5B5B"/>
<path fill-rule="evenodd" clip-rule="evenodd" d="M172 44.5012C173.57 42.4118 174.5 39.8145 174.5 37C174.5 34.1854 173.57 31.5881 172 29.4988C170.43 31.5881 169.5 34.1855 169.5 37C169.5 39.8146 170.43 42.4119 172 44.5012Z" fill="#7E5B5B"/>
<path fill-rule="evenodd" clip-rule="evenodd" d="M172 44.5012C173.57 42.4118 174.5 39.8145 174.5 37C174.5 34.1854 173.57 31.5881 172 29.4988C170.43 31.5881 169.5 34.1855 169.5 37C169.5 39.8146 170.43 42.4119 172 44.5012Z" fill="#7E5B5B"/>
<path fill-rule="evenodd" clip-rule="evenodd" d="M151.141 30.8046C153.295 27.0382 157.351 24.5 162 24.5C167.903 24.5 172.851 28.592 174.161 34.0943C171.392 35.9305 168.071 37 164.5 37C159.145 37 154.351 34.5943 151.141 30.8046Z" fill="#7E5B5B"/>
<path fill-rule="evenodd" clip-rule="evenodd" d="M151.141 30.8046C153.295 27.0382 157.351 24.5 162 24.5C167.903 24.5 172.851 28.592 174.161 34.0943C171.392 35.9305 168.071 37 164.5 37C159.145 37 154.351 34.5943 151.141 30.8046Z" fill="#7E5B5B"/>
</svg>
