<svg width="88" height="40" viewBox="0 0 88 40" fill="none" xmlns="http://www.w3.org/2000/svg">
<g filter="url(#filter0_d_457_150896)">
<rect x="8" y="1" width="78" height="36" rx="4" fill="white"/>
<path d="M36.0512 10.6396H19.9472C18.7532 10.6396 17.7812 11.6116 17.7812 12.8056V24.7937C17.7812 25.9877 18.7532 26.9597 19.9472 26.9597H23.5172V27.8417C23.5172 28.2857 23.7092 28.6817 23.9912 28.9457C24.2792 29.2097 24.6452 29.3596 25.0412 29.3596C25.4132 29.3596 25.8092 29.2157 26.1092 28.9157L28.0653 26.9597H36.0512C37.2452 26.9597 38.2172 25.9877 38.2172 24.7937V12.8056C38.2172 11.6116 37.2452 10.6396 36.0512 10.6396ZM36.8973 24.7937C36.8973 25.2617 36.5192 25.6397 36.0512 25.6397H27.5192L25.1792 27.9797L25.0472 28.0397L24.9032 27.9797C24.8672 27.9437 24.8492 27.9137 24.8492 27.8357V25.6337H19.9472C19.4792 25.6337 19.1012 25.2557 19.1012 24.7877V12.8056C19.1012 12.3376 19.4792 11.9596 19.9472 11.9596H36.0512C36.5192 11.9596 36.8973 12.3376 36.8973 12.8056V24.7937Z" fill="#CA303D"/>
<path d="M23.3973 15.4541H32.8392C33.0372 15.4541 33.2053 15.6341 33.2053 15.8561C33.2053 16.0781 33.0432 16.2581 32.8392 16.2581H23.3973C23.1933 16.2581 23.0312 16.0781 23.0312 15.8561C23.0312 15.6341 23.1933 15.4541 23.3973 15.4541Z" fill="#CA303D"/>
<path d="M23.3973 18.3401H32.8392C33.0372 18.3401 33.2053 18.5201 33.2053 18.7421C33.2053 18.9641 33.0432 19.1441 32.8392 19.1441H23.3973C23.1933 19.1441 23.0312 18.9641 23.0312 18.7421C23.0312 18.5201 23.1933 18.3401 23.3973 18.3401Z" fill="#CA303D"/>
<path d="M23.3973 21.2321H32.8392C33.0372 21.2321 33.2053 21.4121 33.2053 21.6341C33.2053 21.8561 33.0432 22.0361 32.8392 22.0361H23.3973C23.1933 22.0361 23.0312 21.8561 23.0312 21.6341C23.0312 21.4121 23.1933 21.2321 23.3973 21.2321Z" fill="#CA303D"/>
<path d="M55.152 23L49.356 15.164L50.148 14.6L55.944 22.424L55.152 23ZM49.116 23V14.6H50.148L50.136 15.404V23H49.116ZM55.152 23V14.6H56.172V23H55.152ZM60.941 23.144C60.357 23.144 59.837 23.012 59.381 22.748C58.925 22.476 58.569 22.104 58.313 21.632C58.057 21.16 57.929 20.616 57.929 20C57.929 19.384 58.053 18.84 58.301 18.368C58.557 17.896 58.913 17.528 59.369 17.264C59.825 16.992 60.341 16.856 60.917 16.856C61.509 16.856 62.029 16.992 62.477 17.264C62.933 17.528 63.285 17.896 63.533 18.368C63.789 18.84 63.917 19.384 63.917 20C63.917 20.616 63.789 21.16 63.533 21.632C63.285 22.104 62.937 22.476 62.489 22.748C62.041 23.012 61.525 23.144 60.941 23.144ZM60.941 22.232C61.333 22.232 61.677 22.14 61.973 21.956C62.269 21.764 62.501 21.5 62.669 21.164C62.837 20.828 62.921 20.44 62.921 20C62.921 19.56 62.833 19.172 62.657 18.836C62.489 18.5 62.253 18.24 61.949 18.056C61.653 17.864 61.309 17.768 60.917 17.768C60.525 17.768 60.181 17.864 59.885 18.056C59.589 18.24 59.353 18.5 59.177 18.836C59.009 19.172 58.925 19.56 58.925 20C58.925 20.44 59.009 20.828 59.177 21.164C59.353 21.5 59.593 21.764 59.897 21.956C60.201 22.14 60.549 22.232 60.941 22.232ZM67.7685 23.144C67.1845 23.144 66.7325 22.992 66.4125 22.688C66.0925 22.384 65.9325 21.956 65.9325 21.404V15.128H66.8925V21.308C66.8925 21.612 66.9725 21.848 67.1325 22.016C67.3005 22.176 67.5325 22.256 67.8285 22.256C67.9245 22.256 68.0165 22.244 68.1045 22.22C68.2005 22.188 68.3245 22.116 68.4765 22.004L68.8485 22.784C68.6405 22.92 68.4525 23.012 68.2845 23.06C68.1165 23.116 67.9445 23.144 67.7685 23.144ZM64.8885 17.852V17H68.6925V17.852H64.8885ZM72.7817 23.144C72.1977 23.144 71.6817 23.012 71.2337 22.748C70.7937 22.476 70.4457 22.104 70.1897 21.632C69.9337 21.16 69.8057 20.616 69.8057 20C69.8057 19.384 69.9297 18.84 70.1777 18.368C70.4337 17.896 70.7857 17.528 71.2337 17.264C71.6817 16.992 72.1897 16.856 72.7577 16.856C73.3177 16.856 73.8017 16.996 74.2097 17.276C74.6177 17.548 74.9337 17.932 75.1577 18.428C75.3817 18.924 75.4937 19.508 75.4937 20.18H74.5337C74.5337 19.668 74.4657 19.232 74.3297 18.872C74.1937 18.504 73.9937 18.22 73.7297 18.02C73.4657 17.82 73.1377 17.72 72.7457 17.72C72.3537 17.72 72.0097 17.816 71.7137 18.008C71.4257 18.192 71.2017 18.456 71.0417 18.8C70.8817 19.144 70.8017 19.548 70.8017 20.012C70.8017 20.468 70.8897 20.864 71.0657 21.2C71.2417 21.528 71.4817 21.788 71.7857 21.98C72.0897 22.164 72.4377 22.256 72.8297 22.256C73.2537 22.256 73.6097 22.156 73.8977 21.956C74.1857 21.756 74.4097 21.496 74.5697 21.176L75.4217 21.596C75.2617 21.908 75.0537 22.18 74.7977 22.412C74.5497 22.644 74.2577 22.824 73.9217 22.952C73.5857 23.08 73.2057 23.144 72.7817 23.144ZM70.4537 20.18V19.352H74.9057V20.18H70.4537Z" fill="#484A55"/>
<path d="M2.74885 19.7206C2.34001 19.3272 2.34001 18.6728 2.74885 18.2794L13.8066 7.63907C14.4419 7.02775 15.5 7.47799 15.5 8.35965L15.5 29.6404C15.5 30.522 14.4419 30.9723 13.8066 30.3609L2.74885 19.7206Z" fill="white"/>
</g>
<defs>
<filter id="filter0_d_457_150896" x="0.441406" y="0" width="87.5586" height="40" filterUnits="userSpaceOnUse" color-interpolation-filters="sRGB">
<feFlood flood-opacity="0" result="BackgroundImageFix"/>
<feColorMatrix in="SourceAlpha" type="matrix" values="0 0 0 0 0 0 0 0 0 0 0 0 0 0 0 0 0 0 127 0" result="hardAlpha"/>
<feOffset dy="1"/>
<feGaussianBlur stdDeviation="1"/>
<feColorMatrix type="matrix" values="0 0 0 0 0.145098 0 0 0 0 0.145098 0 0 0 0 0.152941 0 0 0 0.06 0"/>
<feBlend mode="normal" in2="BackgroundImageFix" result="effect1_dropShadow_457_150896"/>
<feBlend mode="normal" in="SourceGraphic" in2="effect1_dropShadow_457_150896" result="shape"/>
</filter>
</defs>
</svg>
