<svg width="24" height="24" viewBox="0 0 24 24" fill="none" xmlns="http://www.w3.org/2000/svg">
<path d="M19 8C20.6569 8 22 6.65685 22 5C22 3.34315 20.6569 2 19 2C17.3431 2 16 3.34315 16 5C16 6.65685 17.3431 8 19 8Z" fill="#CA303D"/>
<path d="M18.45 14.5319C18.33 14.3939 18.264 14.2139 18.264 14.0279V10.1879C18.174 10.1879 18.09 10.1999 18 10.1999C17.64 10.1999 17.286 10.1579 16.944 10.0799V14.0279C16.944 14.4899 17.1 14.9399 17.382 15.3059L19.038 17.8559H4.962L6.618 15.3059C6.9 14.9399 7.056 14.4899 7.056 14.0279V7.9559C7.056 4.2719 10.152 3.7199 12 3.7199C12.438 3.7199 12.942 3.7559 13.464 3.8459C13.614 3.4139 13.818 3.0119 14.076 2.6459C13.302 2.4599 12.558 2.3999 12 2.3999C10.02 2.3999 5.736 3.0959 5.736 7.9559V14.0279C5.736 14.2139 5.67 14.3939 5.55 14.5319L3.36 17.8979C2.928 18.4019 3.288 19.1759 3.948 19.1759H8.694C8.988 20.7419 10.356 21.9239 12.006 21.9239C13.656 21.9239 15.024 20.7419 15.318 19.1759H20.064C20.724 19.1759 21.084 18.4019 20.652 17.8979L18.462 14.5319H18.45ZM12 20.6039C11.1 20.6039 10.344 20.0159 10.068 19.2119H13.932C13.656 20.0159 12.9 20.6039 12 20.6039Z" fill="#FFFF"/>
</svg>
