<svg width="56" height="56" viewBox="0 0 56 56" fill="none" xmlns="http://www.w3.org/2000/svg">
<path d="M50.6473 14H5.81928C5.00728 14 4.36328 14.658 4.36328 15.456V37.562C4.36328 38.374 5.02128 39.018 5.81928 39.018H23.6693L27.0993 42.448C27.7293 43.078 28.7373 43.078 29.3673 42.448L32.7973 39.018H50.6473C51.4593 39.018 52.1033 38.36 52.1033 37.562V15.456C52.1033 14.644 51.4453 14 50.6473 14Z" fill="#EFEFEF"/>
<path d="M5.81928 14C5.00728 14 4.36328 14.658 4.36328 15.456V34.832H25.2093L27.4633 37.086C27.8973 37.52 28.5833 37.52 29.0173 37.086L31.2713 34.832H47.8473C48.6593 34.832 49.3033 34.174 49.3033 33.376V14H5.81928Z" fill="white"/>
<path d="M31.178 24.5977C30.982 24.2617 30.562 24.1497 30.226 24.3457L28.7 25.2277V23.4637C28.7 23.0717 28.392 22.7637 28 22.7637C27.608 22.7637 27.3 23.0717 27.3 23.4637V25.2277L25.774 24.3457C25.438 24.1497 25.018 24.2617 24.822 24.5977C24.626 24.9337 24.738 25.3537 25.074 25.5497L26.6 26.4317L25.074 27.3137C24.738 27.5097 24.626 27.9297 24.822 28.2657C25.018 28.6017 25.438 28.7137 25.774 28.5177L27.3 27.6357V29.3997C27.3 29.7917 27.608 30.0997 28 30.0997C28.392 30.0997 28.7 29.7917 28.7 29.3997V27.6357L30.226 28.5177C30.562 28.7137 30.982 28.6017 31.178 28.2657C31.374 27.9297 31.262 27.5097 30.926 27.3137L29.4 26.4317L30.926 25.5497C31.262 25.3537 31.374 24.9337 31.178 24.5977Z" fill="#1E2347"/>
<path d="M18.3543 24.5977C18.1583 24.2617 17.7383 24.1497 17.4023 24.3457L15.8763 25.2277V23.4637C15.8763 23.0717 15.5683 22.7637 15.1763 22.7637C14.7843 22.7637 14.4763 23.0717 14.4763 23.4637V25.2277L12.9503 24.3457C12.6143 24.1497 12.1943 24.2617 11.9983 24.5977C11.8023 24.9337 11.9143 25.3537 12.2503 25.5497L13.7763 26.4317L12.2503 27.3137C11.9143 27.5097 11.8023 27.9297 11.9983 28.2657C12.1943 28.6017 12.6143 28.7137 12.9503 28.5177L14.4763 27.6357V29.3997C14.4763 29.7917 14.7843 30.0997 15.1763 30.0997C15.5683 30.0997 15.8763 29.7917 15.8763 29.3997V27.6357L17.4023 28.5177C17.7383 28.7137 18.1583 28.6017 18.3543 28.2657C18.5503 27.9297 18.4383 27.5097 18.1023 27.3137L16.5763 26.4317L18.1023 25.5497C18.4383 25.3537 18.5503 24.9337 18.3543 24.5977Z" fill="#1E2347"/>
<path d="M43.7498 27.3137L42.2238 26.4317L43.7498 25.5497C44.0858 25.3537 44.1978 24.9337 44.0018 24.5977C43.8058 24.2617 43.3858 24.1497 43.0498 24.3457L41.5238 25.2277V23.4637C41.5238 23.0717 41.2158 22.7637 40.8238 22.7637C40.4318 22.7637 40.1238 23.0717 40.1238 23.4637V25.2277L38.5978 24.3457C38.2618 24.1497 37.8418 24.2617 37.6458 24.5977C37.4498 24.9337 37.5618 25.3537 37.8978 25.5497L39.4238 26.4317L37.8978 27.3137C37.5618 27.5097 37.4498 27.9297 37.6458 28.2657C37.8418 28.6017 38.2618 28.7137 38.5978 28.5177L40.1238 27.6357V29.3997C40.1238 29.7917 40.4318 30.0997 40.8238 30.0997C41.2158 30.0997 41.5238 29.7917 41.5238 29.3997V27.6357L43.0498 28.5177C43.3858 28.7137 43.8058 28.6017 44.0018 28.2657C44.1978 27.9297 44.0858 27.5097 43.7498 27.3137Z" fill="#1E2347"/>
<path d="M50.7641 15.7089L50.8201 15.7649V36.6389L50.7641 36.6949H32.9561C32.1441 36.6949 31.3601 37.0169 30.7721 37.5909L28.1541 40.2089L28.0001 40.2649L27.8461 40.2089L25.2281 37.5909C24.6541 37.0169 23.8701 36.6949 23.0441 36.6949H5.2361L5.1801 36.6389V15.7649L5.2361 15.7089H50.7641ZM50.7641 12.6289H5.2361C3.5001 12.6289 2.1001 14.0289 2.1001 15.7649V36.6389C2.1001 38.3749 3.5001 39.7749 5.2361 39.7749H23.0441L25.6621 42.3929C26.3061 43.0369 27.1461 43.3589 27.9861 43.3589C28.8261 43.3589 29.6661 43.0369 30.3101 42.3929L32.9281 39.7749H50.7361C52.4721 39.7749 53.8721 38.3749 53.8721 36.6389V15.7649C53.8721 14.0289 52.4721 12.6289 50.7361 12.6289H50.7641Z" fill="#1E2347"/>
</svg>
