<svg width="32" height="32" viewBox="0 0 32 32" fill="none" xmlns="http://www.w3.org/2000/svg">
<path d="M18.0082 10.1449C18.8242 10.2409 19.9042 10.8089 20.6322 11.5449C21.3682 12.2809 21.9442 13.3689 22.0322 14.2009C22.0562 14.4329 22.2562 14.6089 22.4882 14.6089H22.5362C22.7842 14.5769 22.9682 14.3529 22.9442 14.1049C22.8162 12.9129 22.0162 11.6409 21.2802 10.9049C20.5522 10.1769 19.2802 9.37688 18.0562 9.24088C17.8242 9.24088 17.6322 9.41688 17.6002 9.64888C17.5682 9.89688 17.7522 10.1289 18.0002 10.1529L18.0082 10.1449ZM18.7442 6.82487C20.1762 6.98487 21.8642 7.84888 23.0402 9.02488C24.2242 10.2089 25.0882 11.9129 25.2482 13.3609C25.2722 13.5929 25.4722 13.7689 25.7042 13.7689H25.7522C26.0002 13.7369 26.1842 13.5129 26.1602 13.2649C25.9762 11.5929 25.0322 9.72088 23.6882 8.37688C22.3442 7.03288 20.4882 6.10488 18.8002 5.91287C18.5682 5.91287 18.3762 6.08888 18.3442 6.32088C18.3122 6.56888 18.4962 6.80087 18.7442 6.82487ZM26.8322 25.1849C26.1282 26.0649 25.4562 26.8889 23.2242 27.1529C23.2242 27.1529 23.1042 27.1689 22.8722 27.1689C21.5602 27.1689 16.8322 26.7209 11.1042 20.9929C6.01623 15.9049 4.23224 12.4089 4.93624 8.94488C5.45624 6.41688 6.83224 5.33687 6.88023 5.29688L6.92823 5.25688L6.96823 5.21688C7.20023 4.98488 7.49623 4.86488 7.81624 4.86488C8.10424 4.86488 8.36823 4.96888 8.56823 5.16888L12.2642 8.87288C12.6882 9.29688 12.6642 10.0169 12.2162 10.4649L10.5842 12.0969L10.5602 12.1289C10.1362 12.5929 10.1842 13.2329 10.4162 13.6409C11.0882 14.8569 12.0162 16.5289 13.8002 18.3129C15.5762 20.0889 17.2402 21.0089 18.4562 21.6889C18.5762 21.7529 18.8322 21.8729 19.1442 21.8729C19.5122 21.8729 19.8562 21.7129 20.1122 21.4249L21.6402 19.8969C21.8642 19.6649 22.1682 19.5449 22.4802 19.5449C22.7682 19.5449 23.0402 19.6569 23.2322 19.8489L26.9282 23.5449C27.4002 24.0169 27.2082 24.7369 26.8242 25.2089L26.8322 25.1849ZM28.0482 22.4249L24.3522 18.7209C23.8562 18.2249 23.1922 17.9529 22.4802 17.9529C21.7682 17.9529 21.0402 18.2409 20.5122 18.7769L19.0722 20.2169C17.9522 19.5929 16.4642 18.7369 14.9202 17.1929C13.3762 15.6489 12.5202 14.1689 11.8962 13.0409L13.3362 11.6009C14.4082 10.5289 14.4322 8.80888 13.3842 7.76088L9.68823 4.06488C9.19223 3.56888 8.52823 3.29688 7.81624 3.29688C7.10424 3.29688 6.40823 3.57688 5.88023 4.08088C5.56024 4.33688 3.96823 5.74488 3.37623 8.64888C2.54423 12.7129 4.45624 16.6169 9.97623 22.1449C16.1362 28.3049 21.4002 28.7849 22.8722 28.7849C23.1762 28.7849 23.3602 28.7689 23.4082 28.7609C26.2802 28.4249 27.3122 27.1449 28.0642 26.2169C29.0402 25.0089 29.0322 23.4169 28.0562 22.4329" fill="#1E2347"/>
</svg>
