<svg width="48" height="49" viewBox="0 0 48 49" fill="none" xmlns="http://www.w3.org/2000/svg">
<circle cx="24" cy="24.5" r="24" fill="#1E2347"/>
<path fill-rule="evenodd" clip-rule="evenodd" d="M24.24 13.7921C24.7322 13.791 25.1303 14.1891 25.1292 14.6813L25.084 34.7451C25.0829 35.2373 24.683 35.6372 24.1908 35.6383C23.6986 35.6394 23.3005 35.2413 23.3016 34.7491L23.3468 14.6853C23.3479 14.1931 23.7478 13.7932 24.24 13.7921Z" fill="white"/>
<path fill-rule="evenodd" clip-rule="evenodd" d="M13.2414 24.6889C13.2425 24.1967 13.6424 23.7968 14.1346 23.7957L34.1984 23.7505C34.6906 23.7494 35.0887 24.1475 35.0876 24.6397C35.0865 25.1319 34.6866 25.5318 34.1944 25.5329L14.1306 25.5781C13.6384 25.5792 13.2403 25.1811 13.2414 24.6889Z" fill="white"/>
</svg>
