<svg width="264" height="56" viewBox="0 0 264 56" fill="none" xmlns="http://www.w3.org/2000/svg">
<line opacity="0.7" y1="27.5" x2="32" y2="27.5" stroke="url(#paint0_linear_3368_272436)"/>
<g opacity="0.65">
<path d="M57.2597 27.5038C57.6997 27.2518 58.2197 26.9558 58.6597 26.5638C58.8797 26.3678 59.0797 26.1438 59.2277 25.8758C59.3757 25.6118 59.4717 25.2998 59.4717 24.9678V22.4318H60.2357V21.5518H51.7637V22.4318H52.5277V24.9678C52.5277 25.5238 52.7877 25.9918 53.1197 26.3478C53.6197 26.8838 54.2917 27.2438 54.8237 27.5518C55.0877 27.7038 55.3157 27.8398 55.4517 27.9478C55.4757 27.9678 55.4917 27.9838 55.5117 27.9998C55.4917 28.0198 55.4717 28.0358 55.4437 28.0598C55.2917 28.1758 55.0357 28.3278 54.7437 28.4918C54.3037 28.7438 53.7837 29.0398 53.3437 29.4318C53.1237 29.6278 52.9237 29.8518 52.7757 30.1198C52.6277 30.3838 52.5317 30.6958 52.5317 31.0278V33.5638H51.7677V34.4438H60.2357V33.5638H59.4717V31.0278C59.4717 30.4718 59.2117 30.0038 58.8797 29.6478C58.3797 29.1118 57.7077 28.7518 57.1757 28.4438C56.9117 28.2918 56.6837 28.1558 56.5477 28.0478C56.5237 28.0278 56.5077 28.0118 56.4877 27.9958C56.5077 27.9758 56.5277 27.9598 56.5557 27.9358C56.7077 27.8198 56.9637 27.6678 57.2557 27.5038H57.2597ZM55.2157 26.7638C54.7717 26.5118 54.2877 26.2318 53.9437 25.9238C53.7717 25.7718 53.6317 25.6118 53.5437 25.4518C53.4557 25.2918 53.4077 25.1398 53.4077 24.9678V22.4318H58.5917V24.9678C58.5917 25.2478 58.4717 25.4878 58.2357 25.7478C57.8837 26.1358 57.2757 26.4798 56.7397 26.7878C56.4717 26.9438 56.2197 27.0878 56.0077 27.2518L55.9997 27.2598C55.7757 27.0838 55.5077 26.9278 55.2197 26.7638H55.2157ZM56.7797 29.2318C57.2237 29.4838 57.7077 29.7638 58.0517 30.0718C58.2237 30.2238 58.3637 30.3838 58.4517 30.5438C58.5397 30.7038 58.5877 30.8558 58.5877 31.0278V33.5638H53.4077V31.0278C53.4077 30.7478 53.5277 30.5078 53.7637 30.2478C54.1157 29.8598 54.7237 29.5158 55.2597 29.2078C55.5277 29.0518 55.7797 28.9078 55.9917 28.7438L55.9997 28.7358C56.2237 28.9118 56.4917 29.0678 56.7797 29.2318Z" fill="#636574"/>
<path d="M57.6927 31.916H54.3047V32.556H57.6927V31.916Z" fill="#636574"/>
<rect x="32.5" y="4.5" width="47" height="47" rx="23.5" stroke="#DBDBDB"/>
</g>
<line opacity="0.7" x1="80" y1="27.5" x2="104" y2="27.5" stroke="#DBDBDB"/>
<path d="M133.89 27.2561C134.55 26.8781 135.33 26.4341 135.99 25.8461C136.32 25.5521 136.62 25.2161 136.842 24.8141C137.064 24.4181 137.208 23.9501 137.208 23.4521V19.6481H138.354V18.3281H125.646V19.6481H126.792V23.4521C126.792 24.2861 127.182 24.9881 127.68 25.5221C128.43 26.3261 129.438 26.8661 130.236 27.3281C130.632 27.5561 130.974 27.7601 131.178 27.9221C131.214 27.9521 131.238 27.9761 131.268 28.0001C131.238 28.0301 131.208 28.0541 131.166 28.0901C130.938 28.2641 130.554 28.4921 130.116 28.7381C129.456 29.1161 128.676 29.5601 128.016 30.1481C127.686 30.4421 127.386 30.7781 127.164 31.1801C126.942 31.5761 126.798 32.0441 126.798 32.5421V36.3461H125.652V37.6661H138.354V36.3461H137.208V32.5421C137.208 31.7081 136.818 31.0061 136.32 30.4721C135.57 29.6681 134.562 29.1281 133.764 28.6661C133.368 28.4381 133.026 28.2341 132.822 28.0721C132.786 28.0421 132.762 28.0181 132.732 27.9941C132.762 27.9641 132.792 27.9401 132.834 27.9041C133.062 27.7301 133.446 27.5021 133.884 27.2561H133.89ZM130.824 26.1461C130.158 25.7681 129.432 25.3481 128.916 24.8861C128.658 24.6581 128.448 24.4181 128.316 24.1781C128.184 23.9381 128.112 23.7101 128.112 23.4521V19.6481H135.888V23.4521C135.888 23.8721 135.708 24.2321 135.354 24.6221C134.826 25.2041 133.914 25.7201 133.11 26.1821C132.708 26.4161 132.33 26.6321 132.012 26.8781L132 26.8901C131.664 26.6261 131.262 26.3921 130.83 26.1461H130.824ZM133.17 29.8481C133.836 30.2261 134.562 30.6461 135.078 31.1081C135.336 31.3361 135.546 31.5761 135.678 31.8161C135.81 32.0561 135.882 32.2841 135.882 32.5421V36.3461H128.112V32.5421C128.112 32.1221 128.292 31.7621 128.646 31.3721C129.174 30.7901 130.086 30.2741 130.89 29.8121C131.292 29.5781 131.67 29.3621 131.988 29.1161L132 29.1041C132.336 29.3681 132.738 29.6021 133.17 29.8481Z" fill="#636574"/>
<path d="M134.539 33.874H129.457V34.834H134.539V33.874Z" fill="#636574"/>
<rect x="104.5" y="0.5" width="55" height="55" rx="27.5" stroke="#DBDBDB"/>
<line opacity="0.7" x1="160" y1="27.5" x2="184" y2="27.5" stroke="#DBDBDB"/>
<g opacity="0.65">
<path d="M209.26 27.5038C209.7 27.2518 210.22 26.9558 210.66 26.5638C210.88 26.3678 211.08 26.1438 211.228 25.8758C211.376 25.6118 211.472 25.2998 211.472 24.9678V22.4318H212.236V21.5518H203.764V22.4318H204.528V24.9678C204.528 25.5238 204.788 25.9918 205.12 26.3478C205.62 26.8838 206.292 27.2438 206.824 27.5518C207.088 27.7038 207.316 27.8398 207.452 27.9478C207.476 27.9678 207.492 27.9838 207.512 27.9998C207.492 28.0198 207.472 28.0358 207.444 28.0598C207.292 28.1758 207.036 28.3278 206.744 28.4918C206.304 28.7438 205.784 29.0398 205.344 29.4318C205.124 29.6278 204.924 29.8518 204.776 30.1198C204.628 30.3838 204.532 30.6958 204.532 31.0278V33.5638H203.768V34.4438H212.236V33.5638H211.472V31.0278C211.472 30.4718 211.212 30.0038 210.88 29.6478C210.38 29.1118 209.708 28.7518 209.176 28.4438C208.912 28.2918 208.684 28.1558 208.548 28.0478C208.524 28.0278 208.508 28.0118 208.488 27.9958C208.508 27.9758 208.528 27.9598 208.556 27.9358C208.708 27.8198 208.964 27.6678 209.256 27.5038H209.26ZM207.216 26.7638C206.772 26.5118 206.288 26.2318 205.944 25.9238C205.772 25.7718 205.632 25.6118 205.544 25.4518C205.456 25.2918 205.408 25.1398 205.408 24.9678V22.4318H210.592V24.9678C210.592 25.2478 210.472 25.4878 210.236 25.7478C209.884 26.1358 209.276 26.4798 208.74 26.7878C208.472 26.9438 208.22 27.0878 208.008 27.2518L208 27.2598C207.776 27.0838 207.508 26.9278 207.22 26.7638H207.216ZM208.78 29.2318C209.224 29.4838 209.708 29.7638 210.052 30.0718C210.224 30.2238 210.364 30.3838 210.452 30.5438C210.54 30.7038 210.588 30.8558 210.588 31.0278V33.5638H205.408V31.0278C205.408 30.7478 205.528 30.5078 205.764 30.2478C206.116 29.8598 206.724 29.5158 207.26 29.2078C207.528 29.0518 207.78 28.9078 207.992 28.7438L208 28.7358C208.224 28.9118 208.492 29.0678 208.78 29.2318Z" fill="#636574"/>
<path d="M209.693 31.916H206.305V32.556H209.693V31.916Z" fill="#636574"/>
<rect x="184.5" y="4.5" width="47" height="47" rx="23.5" stroke="#DBDBDB"/>
</g>
<line opacity="0.7" x1="232" y1="27.5" x2="264" y2="27.5" stroke="url(#paint1_linear_3368_272436)"/>
<defs>
<linearGradient id="paint0_linear_3368_272436" x1="32" y1="28" x2="0" y2="28" gradientUnits="userSpaceOnUse">
<stop offset="0.333333" stop-color="#DBDBDB"/>
<stop offset="1" stop-color="#DBDBDB" stop-opacity="0"/>
</linearGradient>
<linearGradient id="paint1_linear_3368_272436" x1="232" y1="28" x2="264" y2="28" gradientUnits="userSpaceOnUse">
<stop offset="0.265625" stop-color="#DBDBDB"/>
<stop offset="1" stop-color="#DBDBDB" stop-opacity="0"/>
</linearGradient>
</defs>
</svg>
