<svg width="24" height="24" viewBox="0 0 24 24" fill="none" xmlns="http://www.w3.org/2000/svg">
<path fill-rule="evenodd" clip-rule="evenodd" d="M20.7662 19.622L15.489 14.3258C16.4241 13.1393 16.9722 11.64 16.9722 10.0112C16.9722 6.13888 13.8446 3 9.98612 3C6.12763 3 3 6.13888 3 10.0112C3 13.8836 6.12763 17.0225 9.98612 17.0225C11.6413 17.0225 13.1675 16.44 14.3605 15.48L19.627 20.7654C19.9386 21.0782 20.4545 21.0782 20.7662 20.7654C21.0779 20.4526 21.0779 19.9348 20.7662 19.622ZM9.98612 15.4045C7.0197 15.4045 4.61218 12.9883 4.61218 10.0112C4.61218 7.03416 7.0197 4.61798 9.98612 4.61798C12.9525 4.61798 15.3601 7.03416 15.3601 10.0112C15.3601 12.9883 12.9525 15.4045 9.98612 15.4045Z" fill="#636574"/>
</svg>
