<svg width="24" height="24" viewBox="0 0 24 24" fill="none" xmlns="http://www.w3.org/2000/svg">
<path d="M22.86 12C22.86 6.00001 18 1.14001 12 1.14001C9.00602 1.14001 6.28201 2.35801 4.32001 4.32001C2.35801 6.28201 1.14001 9.00601 1.14001 12C1.14001 14.346 1.89001 16.512 3.15601 18.288V18.3L3.46801 18.708C3.46801 18.708 3.46801 18.714 3.47401 18.72C3.58201 18.858 3.69601 18.99 3.81001 19.122C3.88201 19.2 3.95401 19.278 4.02601 19.356C4.20001 19.548 4.38001 19.728 4.57201 19.908C4.66201 19.992 4.75201 20.076 4.84201 20.154C5.00401 20.298 5.17201 20.436 5.34601 20.568C5.47201 20.67 5.60401 20.766 5.73601 20.856C5.85002 20.934 5.96402 21.018 6.07802 21.09C6.28202 21.222 6.48601 21.348 6.69601 21.462C6.79802 21.522 6.90002 21.576 7.00802 21.63C7.22402 21.744 7.44002 21.846 7.66202 21.948C7.75202 21.984 7.83602 22.02 7.92602 22.056C8.15402 22.152 8.38802 22.236 8.62802 22.314C8.70002 22.338 8.76602 22.362 8.83802 22.386C9.12002 22.47 9.40802 22.542 9.70201 22.608C9.77402 22.626 9.84002 22.638 9.91202 22.65C10.212 22.71 10.518 22.758 10.83 22.788C10.884 22.788 10.938 22.8 10.992 22.8C11.322 22.83 11.658 22.854 12 22.854C12.342 22.854 12.678 22.836 13.008 22.8C13.062 22.8 13.116 22.794 13.17 22.788C13.482 22.752 13.788 22.704 14.088 22.65C14.16 22.638 14.226 22.62 14.298 22.608C14.592 22.542 14.88 22.47 15.162 22.386C15.234 22.362 15.3 22.338 15.372 22.314C15.612 22.236 15.84 22.152 16.074 22.056C16.164 22.02 16.248 21.984 16.338 21.948C16.56 21.852 16.782 21.744 16.998 21.63C17.1 21.576 17.208 21.522 17.31 21.462C17.52 21.342 17.724 21.216 17.928 21.084C18.042 21.006 18.156 20.928 18.27 20.85C18.402 20.754 18.528 20.658 18.66 20.562C18.834 20.43 19.002 20.292 19.164 20.148C19.254 20.064 19.344 19.986 19.434 19.902C19.62 19.728 19.8 19.542 19.98 19.35C20.052 19.272 20.124 19.194 20.196 19.11C20.31 18.978 20.424 18.846 20.532 18.708C20.532 18.708 20.532 18.702 20.538 18.696L20.862 18.288V18.276C22.116 16.5 22.872 14.334 22.872 11.988L22.86 12ZM17.082 20.064C16.836 20.22 16.578 20.364 16.32 20.502C16.242 20.538 16.164 20.574 16.092 20.616C15.87 20.724 15.642 20.82 15.408 20.91C15.306 20.946 15.21 20.988 15.108 21.018C14.886 21.096 14.664 21.162 14.436 21.222C14.322 21.252 14.214 21.282 14.1 21.306C13.866 21.36 13.626 21.396 13.38 21.432C13.272 21.45 13.17 21.468 13.068 21.48C12.72 21.516 12.366 21.54 12.012 21.54C11.652 21.54 11.304 21.516 10.956 21.48C10.848 21.468 10.746 21.45 10.644 21.432C10.404 21.396 10.164 21.36 9.92402 21.306C9.81002 21.282 9.70201 21.252 9.58801 21.222C9.36001 21.162 9.13801 21.096 8.91602 21.018C8.81401 20.982 8.71202 20.946 8.61601 20.91C8.38201 20.82 8.15402 20.724 7.93202 20.616C7.85402 20.58 7.77602 20.544 7.70402 20.502C7.44002 20.37 7.18801 20.226 6.94201 20.064C6.91201 20.046 6.87602 20.028 6.84601 20.004C6.11402 19.524 5.45401 18.942 4.87801 18.288C5.01001 18.138 5.14201 17.994 5.28001 17.856C7.00802 16.128 9.39002 15.06 12.024 15.06C14.874 15.06 17.406 16.32 19.158 18.3C18.582 18.948 17.934 19.53 17.202 20.004C17.172 20.022 17.136 20.04 17.106 20.064H17.082ZM9.49802 12.102C8.85602 11.46 8.46002 10.578 8.46002 9.60001C8.46002 8.62201 8.85602 7.74001 9.49802 7.09801C10.14 6.45601 11.022 6.06001 12 6.06001C12.978 6.06001 13.86 6.45601 14.502 7.09801C15.144 7.74001 15.54 8.62201 15.54 9.60001C15.54 10.578 15.144 11.46 14.502 12.102C13.86 12.744 12.978 13.14 12 13.14C11.022 13.14 10.14 12.744 9.49802 12.102ZM5.25601 5.25601C6.98401 3.52801 9.36602 2.46001 12 2.46001C14.634 2.46001 17.016 3.52801 18.744 5.25601C20.472 6.98401 21.54 9.36601 21.54 12C21.54 13.938 20.958 15.738 19.968 17.238C18.45 15.594 16.428 14.412 14.142 13.956C15.75 13.164 16.86 11.514 16.86 9.60001C16.86 6.91801 14.682 4.74001 12 4.74001C10.662 4.74001 9.43802 5.28602 8.56202 6.16201C7.68602 7.03801 7.14001 8.25601 7.14001 9.60001C7.14001 11.514 8.24402 13.158 9.85202 13.956C7.71602 14.388 5.80201 15.438 4.32001 16.92C4.21801 17.022 4.12201 17.13 4.02601 17.232C3.03601 15.726 2.46001 13.932 2.46001 12C2.46001 9.36601 3.52801 6.98401 5.25601 5.25601Z" fill="#FFFF"/>
</svg>
