<svg width="24" height="24" viewBox="0 0 24 24" fill="none" xmlns="http://www.w3.org/2000/svg">
<path d="M22.7216 11.7118C20.9816 7.37376 16.8416 4.30176 11.9996 4.30176C7.15764 4.30176 3.02364 7.37376 1.27764 11.7118L1.18164 11.9578L1.27764 12.2038C3.01764 16.5418 7.15764 19.6138 11.9996 19.6138C16.8416 19.6138 20.9756 16.5418 22.7216 12.2038L22.8176 11.9578L22.7216 11.7118ZM11.9996 18.2938C7.82364 18.2938 4.22964 15.7018 2.61564 11.9578C4.22964 8.21376 7.82364 5.62176 11.9996 5.62176C16.1756 5.62176 19.7696 8.21376 21.3836 11.9578C19.7696 15.7018 16.1756 18.2938 11.9996 18.2938Z" fill="#1E2347"/>
<path d="M11.9995 7.97363C9.80348 7.97363 8.02148 9.75563 8.02148 11.9516C8.02148 14.1476 9.80348 15.9296 11.9995 15.9296C14.1955 15.9296 15.9775 14.1476 15.9775 11.9516C15.9775 9.75563 14.1955 7.97363 11.9995 7.97363ZM14.1355 14.0876C13.5895 14.6336 12.8335 14.9696 11.9995 14.9696C11.1655 14.9696 10.4155 14.6336 9.86348 14.0876C9.31748 13.5416 8.98148 12.7856 8.98148 11.9516C8.98148 11.1176 9.31748 10.3676 9.86348 9.81563C10.4095 9.26963 11.1655 8.93363 11.9995 8.93363C12.8335 8.93363 13.5835 9.26963 14.1355 9.81563C14.6815 10.3616 15.0175 11.1176 15.0175 11.9516C15.0175 12.7856 14.6815 13.5356 14.1355 14.0876Z" fill="#1E2347"/>
</svg>
