<svg width="24" height="25" viewBox="0 0 24 25" fill="none" xmlns="http://www.w3.org/2000/svg">
<path d="M22.255 18.022L18.151 10.906L14.047 3.79C13.549 2.932 12.679 2.5 11.809 2.5C10.939 2.5 10.069 2.932 9.57099 3.79L5.46699 10.906L1.35099 18.022C0.354986 19.744 1.59699 21.898 3.58899 21.898H20.017C22.003 21.898 23.245 19.744 22.255 18.022ZM21.109 19.942C21.001 20.134 20.671 20.572 20.017 20.572H3.58899C2.92899 20.572 2.60499 20.128 2.49699 19.942C2.38899 19.75 2.16699 19.252 2.49699 18.682L6.60099 11.566L10.705 4.45C11.035 3.88 11.581 3.82 11.797 3.82C12.013 3.82 12.559 3.88 12.889 4.45L16.993 11.566L21.097 18.682C21.427 19.252 21.205 19.756 21.097 19.942H21.109Z" fill="#C75300"/>
<path d="M12.553 16.2939H11.053V18.0339H12.553V16.2939Z" fill="#C75300"/>
<path d="M12.553 9.46582H11.053V15.3038H12.553V9.46582Z" fill="#C75300"/>
</svg>
